<svg width="166" height="136" viewBox="0 0 166 136" fill="none" xmlns="http://www.w3.org/2000/svg">
  <path d="M65.6723 94.3491C91.5219 94.3491 112.477 73.2283 112.477 47.1746C112.477 21.1208 91.5219 0 65.6723 0C39.8227 0 18.8674 21.1208 18.8674 47.1746C18.8674 73.2283 39.8227 94.3491 65.6723 94.3491Z" fill="#04D7A6"/>
  <path d="M62.9749 45.0425V45.57H62.6917C62.7748 45.3869 62.8702 45.2101 62.9749 45.0425Z" fill="white"/>
  <path d="M83.5573 79.7301H72.0577L86.3314 49.8961C87.0703 48.3569 86.4299 46.5043 84.8997 45.7564C85.5555 44.3414 85.5401 42.7122 84.8381 41.2879L70.0996 11.2925C69.2221 9.5113 67.4579 8.40967 65.4905 8.40967H65.4628C65.2165 8.40967 64.9733 8.42829 64.7362 8.46553C64.493 8.42829 64.2436 8.40967 63.988 8.40967H47.7901C46.0906 8.40967 44.7113 9.79989 44.7113 11.5128C44.7113 13.2258 46.0906 14.616 47.7901 14.616H59.2897L45.0161 44.4469C44.2772 45.9892 44.9176 47.8418 46.4447 48.5897C45.792 50.0047 45.8074 51.6339 46.5093 53.0551L61.2479 83.0505C62.1253 84.8317 63.8864 85.9364 65.8569 85.9364H65.8846C66.1309 85.9364 66.3742 85.9147 66.6112 85.8806C66.8545 85.9178 67.1039 85.9364 67.3594 85.9364H83.5573C85.2568 85.9364 86.6362 84.5462 86.6362 82.8333C86.6362 81.1172 85.2568 79.7301 83.5573 79.7301ZM69.1328 23.3142L78.5973 42.5695H69.1328V23.3142ZM68.3724 48.7758H80.032L68.3724 73.1451V48.7758ZM62.9751 21.201V45.5703H51.3154L62.9751 21.201ZM52.7502 51.7766H62.2146V71.0319L52.7502 51.7766Z" fill="white"/>
  <path d="M68.6525 48.7759C68.5694 48.959 68.477 49.1359 68.3723 49.3034V48.7759H68.6525Z" fill="white"/>
  <path d="M20.8993 96.574V125.16H9.06417V96.574H0V85.0581H29.9358V96.574H20.8993Z" fill="#04D7A6"/>
  <path d="M47.2791 95.2524C51.3987 95.2524 54.9301 96.7451 57.8735 99.7334C60.8169 102.722 62.2886 106.3 62.2886 110.47C62.2886 114.7 60.7984 118.306 57.815 121.282C54.8316 124.258 51.2324 125.747 47.0144 125.747C42.7963 125.747 39.194 124.255 36.2014 121.266C33.2087 118.281 31.7124 114.681 31.7124 110.47C31.7124 106.182 33.2087 102.573 36.2014 99.6434C39.194 96.7171 42.8856 95.2524 47.2791 95.2524ZM46.9866 106.092C45.8198 106.092 44.8284 106.517 44.0125 107.37C43.1966 108.224 42.7871 109.266 42.7871 110.498C42.7871 111.712 43.1996 112.751 44.0248 113.614C44.8499 114.477 45.8352 114.908 46.9836 114.908C48.1505 114.908 49.1449 114.477 49.9701 113.614C50.7952 112.751 51.2078 111.715 51.2078 110.498C51.2078 109.263 50.7983 108.221 49.9824 107.37C49.1665 106.52 48.172 106.092 46.9866 106.092Z" fill="#04D7A6"/>
  <path d="M77.0981 136H66.1958V111.556C66.1958 107.072 67.3627 103.42 69.6934 100.599C71.0327 98.9731 72.7384 97.6821 74.8105 96.7201C76.8795 95.7613 79.0039 95.2803 81.1806 95.2803C85.5126 95.2803 89.1672 96.7481 92.1414 99.6868C95.1156 102.625 96.5996 106.228 96.5996 110.498C96.5996 114.65 95.1217 118.235 92.1691 121.251C89.2165 124.267 85.7158 125.775 81.6763 125.775C81.0144 125.775 80.0445 125.707 78.7606 125.57V113.468C79.6535 114.194 80.5495 114.554 81.4423 114.554C82.5692 114.554 83.536 114.132 84.3426 113.291C85.1493 112.45 85.5526 111.451 85.5526 110.293C85.5526 109.139 85.1339 108.155 84.2995 107.342C83.4651 106.529 82.4645 106.123 81.2976 106.123C78.4989 106.123 77.1011 108.072 77.1011 111.969V136H77.0981Z" fill="#04D7A6"/>
  <path d="M130.147 85.0581V111.06C130.147 115.643 128.792 119.305 126.08 122.048C123.37 124.791 119.759 126.16 115.251 126.16C110.762 126.16 107.326 124.828 104.946 122.163C102.567 119.5 101.375 115.671 101.375 110.675V85.0581H113.21V110.647C113.21 113.095 114.075 114.318 115.806 114.318C117.477 114.318 118.312 113.095 118.312 110.647V85.0581H130.147Z" fill="#04D7A6"/>
  <path d="M150.288 111.293V100.776C152.678 100.776 153.872 99.8543 153.872 98.0141C153.872 96.3291 152.958 95.4881 151.132 95.4881C149.285 95.4881 148.364 96.6425 148.364 98.9543V125.161H136.529V100.189C136.529 97.6045 136.788 95.485 137.302 93.8279C137.816 92.1739 138.697 90.6316 139.94 89.2011C141.338 87.6153 143.087 86.3616 145.187 85.44C147.287 84.5183 149.451 84.0591 151.686 84.0591C155.729 84.0591 159.125 85.4307 161.874 88.1708C164.624 90.914 166 94.312 166 98.3647C166 102.303 164.765 105.493 162.299 107.941C160.045 110.194 156.643 111.321 152.096 111.321L150.288 111.293Z" fill="#04D7A6"/>
</svg>
