<svg xmlns="http://www.w3.org/2000/svg" width="81.368" height="104.386" viewBox="0 0 81.368 104.386">
  <g id="app_logo" transform="translate(-105 -266.031)">
    <g id="Group_9732" data-name="Group 9732" transform="translate(113 266.031)">
      <path id="Path_14862" data-name="Path 14862" d="M3004.14,371.089c.362.789.333,6.056.337,6.969.008,1.505.189,2.539-.3,3.291-.449.694-.187,2.231-.312,3.211-.833.577-4.061.3-5.412.312-1.954.009-2.272.338-2.973-.728-.472-.719-.111-.533-.151-1.584-1.721-.016-.865.086-2.039-.554a14.448,14.448,0,0,0-1.535-.855,83.283,83.283,0,0,0-9.637.039c-1.83.749-1.215,1.349-3.481,1.371-.027.677.2.99-.044,1.411-.138.237-.469.76-.723.845l-6.414.053c-2.472-.044-1-1.8-1.519-3.256-.224-.626-.417-.164-.448-1.114-.033-1.053-.007-2.189,0-3.25.012-1.163.02-5.47.334-6.157a3.881,3.881,0,0,1,.839-2.061c.544-.653,1.023-.652,1.757-1.093-1.446-1.172-4.126-1.248-3.654-3.25a5.163,5.163,0,0,1,3.531.121c1.539.688-.231,2.274,1.188,2.631.445-.307,1.263-2.937,1.538-3.632.876-2.219.771-2.381,2.385-2.749,3.506-.8,15.765-.81,19.253.025.953.228,1.159.219,1.557,1.016.7,1.406,1.711,4.96,2.257,5.342,1.438-.37-.414-2.041,1.284-2.671a4.962,4.962,0,0,1,3.434-.081c.445,1.892-1.172,1.625-3.178,2.9l-.473.352c.921.554,2.321.764,2.6,3.152Zm-40.246,8.823c.8,2.439,1.143,1.677.022,2.737a6.935,6.935,0,0,0-.619.728,1.927,1.927,0,0,0-.037,1.123c1.654,5.6,42.375,5.581,46.6.766.761-.868.626-.619.679-1.135.118-1.144-1.089-1.563-1.5-2.161.258-3.345,2.549-5.582,2.217-11.61-1-18.2-21.029-28.6-36.3-19.729a25.35,25.35,0,0,0-11.05,29.28Z" transform="translate(-2954.34 -347.412)" fill="#fff" fill-rule="evenodd"/>
      <path id="Path_14863" data-name="Path 14863" d="M3083.627,762.663c-1.166-.832-26.418-.741-27.447,0,.195.6,6.388,10.406,6.838,11.1l5.125,8.236a26.291,26.291,0,0,0,1.763,2.717C3070.771,783.694,3083.516,763.033,3083.627,762.663Z" transform="translate(-3037.261 -715.254)" fill="#fff" fill-rule="evenodd"/>
      <path id="Path_14864" data-name="Path 14864" d="M2889.026,635.243c5.865,10.321,39.84,9.082,49.759,7.02,3.734-.776,9.953-2.479,13.136-4.811,1.98-1.45,3.059-3.6,1.895-5.7-1.149-2.074-5.8-5.1-8.125-4.976l-.378,1.721c1.615.763,3.92,1.669,4.49,3.6a1.948,1.948,0,0,1-.034,1.188c-1.241,3.034-6.572,4.222-9.607,4.979-10.149,2.533-27.021,2.64-36.281.362-2.67-.657-8.615-1.987-10.453-4.257a4.452,4.452,0,0,1-.773-1.794c.081-2.308,3.07-3.1,4.76-4.14l-.634-1.859c-2.279-.318-9.995,4.723-7.753,8.666Z" transform="translate(-2888.623 -595.044)" fill="#fff" fill-rule="evenodd"/>
      <path id="Path_14865" data-name="Path 14865" d="M3064.6,474.625c4.335.39,8.349.863,12.775.939,2.958.052,10.343-.119,12.788-1l-1.989-5.284c-.863-1.769-17.182-1.459-20.031-.863-.851.177-1.237.192-1.566.864a48.4,48.4,0,0,0-1.976,5.342Z" transform="translate(-3044.73 -454.293)" fill="#fff" fill-rule="evenodd"/>
      <path id="Path_14866" data-name="Path 14866" d="M3103.554,576.722c.878.686.762.412,1.959.737.689.187,1.46.462,2.167.635a24.829,24.829,0,0,0,5.32.285,16.445,16.445,0,0,0,2.474-.265l4.531-1.029c.819-.489.134-1.361-.065-1.934-2.885.086-5.59.369-8.56.374l-7.483-.336c-.24.671-.4.6-.344,1.533Z" transform="translate(-3079.278 -549.436)" fill="#fff" fill-rule="evenodd"/>
      <path id="Path_14867" data-name="Path 14867" d="M3258.07,560.481c.655,1.5.331,1.826,3.615,1.695,4.34-.173,3.843-2.865,2.508-3.376a5.354,5.354,0,0,0-2.431.169A10.781,10.781,0,0,0,3258.07,560.481Z" transform="translate(-3216.356 -534.85)" fill="#fff" fill-rule="evenodd"/>
      <path id="Path_14868" data-name="Path 14868" d="M3041.851,560.38c-1.26-.854-4.845-2.17-6.123-1.681a1.485,1.485,0,0,0-.916,1.617c.257,1.078,2.322,1.768,3.422,1.843a8.632,8.632,0,0,0,2.5-.186C3041.381,561.8,3041.589,560.982,3041.851,560.38Z" transform="translate(-3018.277 -534.749)" fill="#fff" fill-rule="evenodd"/>
    </g>
    <path id="Path_14869" data-name="Path 14869" d="M2673.475,1010.359v-13.8h-2.6v13.8c0,4.775,3.317,8.094,8.249,8.094,4.9,0,8.249-3.318,8.249-8.094v-13.8h-2.636v13.8a5.629,5.629,0,0,1-11.257,0Zm33.118-.248a8.025,8.025,0,1,0-16.032,0v15.071h2.543v-9.4a7.169,7.169,0,0,0,5.52,2.7,8.064,8.064,0,0,0,7.97-8.373Zm-2.636,0c0,3.349-2.418,5.954-5.364,5.954a5.982,5.982,0,0,1,0-11.907C2701.539,1004.157,2703.957,1006.762,2703.957,1010.111Zm20.838,0a8.024,8.024,0,1,0-8.062,8.373,6.8,6.8,0,0,0,5.519-2.884v2.48h2.543Zm-2.605,0a5.69,5.69,0,0,1-5.4,5.923,5.631,5.631,0,0,1-5.4-5.923c0-3.349,2.419-5.985,5.4-5.985C2719.709,1004.126,2722.19,1006.792,2722.19,1010.111Zm6.388-1.519v9.488h2.6v-9.551c0-3.07,1.954-4.558,5.023-4.279v-2.45c-4.186-.5-7.628,1.954-7.628,6.791Zm20.838,1.334a6.069,6.069,0,0,0,2.822-5.334v-2.481h-2.605v2.667a3.916,3.916,0,0,1-4.186,4.094h-3.753V995.01h-2.6v23.071h2.6v-6.76h3.753c2.6,0,4.186,1.085,4.186,4.031v2.728h2.605v-2.543c0-2.728-.962-4.589-2.822-5.612Z" transform="translate(-2565.87 -654.764)" fill="#fff"/>
  </g>
</svg>
