<?xml version="1.0" encoding="utf-8"?>
<!-- Generator: Adobe Illustrator 24.0.1, SVG Export Plug-In . SVG Version: 6.00 Build 0)  -->
<svg version="1.1" id="Layer_1" xmlns="http://www.w3.org/2000/svg" xmlns:xlink="http://www.w3.org/1999/xlink" x="0px" y="0px"
	 viewBox="0 0 253.9 253.9" style="enable-background:new 0 0 253.9 253.9;" xml:space="preserve">
<style type="text/css">
	.st0{fill:#04D7A6;}
	.st1{fill:#A1FFE3;filter:url(#Adobe_OpacityMaskFilter);}
	.st2{mask:url(#mask0_1_);}
	.st3{opacity:0.75;}
	.st4{fill:none;}
	.st5{fill:#FFB27D;}
	.st6{fill:#F99746;}
	.st7{fill:#EFA26F;}
	.st8{fill:#FFC197;}
	.st9{fill:#0EB889;}
	.st10{fill:#A1FFE3;}
	.st11{fill:#0BD5A4;}
	.st12{fill:#FFD3B6;}
	.st13{fill:#ED7D2B;}
	.st14{fill:#DCEAFF;}
	.st15{fill:#FFFFFF;}
	.st16{fill:#D2E3FC;}
	.st17{fill:#CBE1FD;}
</style>
<g>
	<path class="st0" d="M127,237.5c61,0,110.5-49.5,110.5-110.5c0-61-49.5-110.5-110.5-110.5S16.5,65.9,16.5,127
		C16.5,188,65.9,237.5,127,237.5z"/>
	<defs>
		<filter id="Adobe_OpacityMaskFilter" filterUnits="userSpaceOnUse" x="40.7" y="45.3" width="176.7" height="173">
			<feColorMatrix  type="matrix" values="1 0 0 0 0  0 1 0 0 0  0 0 1 0 0  0 0 0 1 0"/>
		</filter>
	</defs>
	<mask maskUnits="userSpaceOnUse" x="40.7" y="45.3" width="176.7" height="173" id="mask0_1_">
		<path class="st1" d="M127,236.9c61,0,110.5-49.5,110.5-110.5S188,15.9,127,15.9S16.5,65.4,16.5,126.4S65.9,236.9,127,236.9z"/>
	</mask>
	<g class="st2">
		<g class="st3">
			<rect x="40.7" y="45.3" class="st4" width="176.7" height="173"/>
		</g>
		<path class="st5" d="M141.6,118.2c0,0-9.2,18.5-18.6,31.2c-3.7,5.1-7.5,9.3-10.7,11c-3.1,1.7-5.8,4.3-8,7.3
			c-5.7,7.6-8.3,17.1-8.3,17.1l-24-36.3c0,0,0.8-35.5,3.7-41.4c4.2-8.6,6.2-26.1,7.8-29.6c1.2-2.6,4.6-15.9,4.9-16.9
			c0.1-0.4,1.3-1.1,2.8-1.1c1.2,0,3.2,1.1,3.7,3.5c2.6,11.9-0.5,19.7-0.5,20.1c0.9,9.1-1.8,15.9,0.1,17.7c0.1,0.1,0.2,0,0.4-0.1
			c3.3-2.1,23.8-32.1,26.4-32.7C123.9,67.4,141.6,118.2,141.6,118.2z"/>
		<path class="st6" d="M103.2,177.6c0,0-0.3,16.1-1.3,37.9H41.4c13.8-29.5,25.9-54.3,25.9-54.3S101.7,162.2,103.2,177.6z"/>
		<path class="st5" d="M162.5,55.7l-7.4,10.9l-7.3,10.7c-0.4,0.5-1,0.7-1.5,0.7c-1.7-0.2-3.9-2.7-5.6-4.1l-0.2-0.1
			c-2.2-1.8-2.5-5.2-0.7-7.4L151,52.8l3.3-4c1.8-2.2,5.2-2.5,7.4-0.7l0.2,0.1C164.1,50.1,164.4,53.5,162.5,55.7z"/>
		<path class="st7" d="M155.1,66.6l-7.3,10.7c-0.4,0.5-1,0.7-1.5,0.7l4.7-25.1C151,53,151.8,64.2,155.1,66.6z"/>
		<path class="st7" d="M122.9,149.4c-3.7,5.1-7.5,9.3-10.7,11c-3.1,1.7-5.8,4.3-8,7.3c-2.5-1.2-5.4-2.6-8.2-3.9
			c-3.4-1.7-3.6-6.5-0.2-8.4c0,0,0.1,0,0.1-0.1c3.1-1.8,6.4-8.2,6.4-8.2L122.9,149.4z"/>
		<path class="st8" d="M88.3,61.1L86.3,69c0,0,1.7,0.7,2.8,0.2C90.2,68.6,91.1,61.5,88.3,61.1z"/>
		<path class="st9" d="M141.7,153.2h-36.8c-5.5,0-10-4.5-10-10V56.3c0-5.5,4.5-10,10-10h36.8c5.5,0,10,4.5,10,10v86.9
			C151.6,148.7,147.2,153.2,141.7,153.2z"/>
		<path class="st10" d="M148.8,54.5v89.8c0,3-2.5,5.5-5.5,5.5h-40.1c-3,0-5.5-2.5-5.5-5.5V54.5c0-3,2.5-5.5,5.5-5.5h40.1
			C146.4,49,148.8,51.5,148.8,54.5z"/>
		<path class="st10" d="M143.3,49l-39.6,100.8h-0.5c-3,0-5.5-2.5-5.5-5.5V54.5c0-3,2.5-5.5,5.5-5.5H143.3z"/>
		<path class="st11" d="M131.5,52.3h-16.4c-1.5,0-2.7-1.2-2.7-2.7c0-1.5,1.2-2.7,2.7-2.7h16.4c1.5,0,2.7,1.2,2.7,2.7
			C134.1,51.1,132.9,52.3,131.5,52.3z"/>
		<path class="st5" d="M158.8,96.8l-1.1,0.4l-7.5,2.8c-0.2,0.1-0.3,0.1-0.5,0.2c-2.5,0.6-5.1-0.7-6-3.1l-0.1-0.3
			c-1-2.6,0.3-5.5,2.9-6.6l7-2.6l0.5-0.2l1.1-0.4c2.6-1,5.6,0.3,6.5,2.9l0.1,0.3C162.8,92.9,161.5,95.8,158.8,96.8z"/>
		<path class="st12" d="M152.8,97c-1.2,0.5-3.5,1.3-4.7,1.5c-0.3,0.1-1-0.1-1.6-0.8c-0.3-0.4-0.7-0.9-0.9-1.7
			c-0.1-0.4-0.2-0.7-0.3-1.1c-0.1-0.4,0-0.9,0-1.3c0.1-0.4,0.3-0.7,0.7-0.9c1.3-0.6,3-1.4,4.5-1.8c1-0.3,2.1,0.2,2.4,1.1l0.2,0.4
			l0.8,2.2C154.3,95.6,153.8,96.6,152.8,97z"/>
		<path class="st8" d="M152.8,97c-1.2,0.5-3.5,1.3-4.7,1.5c-0.3,0.1-1-0.1-1.6-0.8c-0.1-0.1-0.1-0.3-0.2-0.5
			c-0.1-0.4-0.2-0.7-0.3-1.1c-0.1-0.4,0-0.9,0-1.3c0.1-0.4,0.3-0.7,0.7-0.9c1.3-0.6,3-1.4,4.5-1.8c0.7-0.2,1.3-0.1,1.8,0.3l0.8,2.2
			C154.3,95.6,153.8,96.6,152.8,97z"/>
		<path class="st5" d="M155.5,107.3l-5.7,1.6c-1.7,0.5-3.6-0.6-4-2.3l-0.2-0.7c-0.5-1.7,0.6-3.6,2.3-4l5.7-1.6
			c1.7-0.5,3.6,0.6,4,2.3l0.2,0.7C158.3,105,157.2,106.8,155.5,107.3z"/>
		<path class="st12" d="M152.4,107c-1.1,0.3-3,0.8-4,0.8c-0.4,0-1.1-0.3-1.6-1.2c-0.1-0.2-0.2-0.5-0.3-0.8c-0.1-0.3-0.1-0.6-0.1-0.8
			c0-0.3,0-0.7,0.1-1c0.1-0.3,0.3-0.5,0.7-0.7c1.1-0.4,2.6-0.8,3.8-1.1c0.9-0.2,1.7,0.3,1.9,1l0.2,0.5l0.4,1.6
			C153.7,106,153.2,106.8,152.4,107z"/>
		<path class="st8" d="M152.4,107c-1.1,0.3-3,0.8-4,0.8c-0.4,0-1.1-0.3-1.6-1.2c-0.1-0.3-0.1-0.5-0.1-0.8c0-0.3,0-0.7,0.1-1
			c0.1-0.3,0.3-0.5,0.7-0.7c1.1-0.4,2.6-0.8,3.8-1.1c0.7-0.1,1.4,0.1,1.8,0.6l0.4,1.6C153.7,106,153.2,106.8,152.4,107z"/>
		<path class="st13" d="M61.3,173.4c0,0,11.8,11.3,19.8,15.7l6-4.3v6.3c0,0,11.9,2.1,15.6,0v-17.2l-33.3-16.7L61.3,173.4z"/>
		<path class="st14" d="M105.3,189.7c-4.6,0.9-14.5-2.7-14.5-2.7l1.6-15.4l-11.2,12.8c-5.7-2.1-14.6-7.6-19.9-11.1
			c-2.6-1.7-4.4-2.9-4.4-2.9c7.5-12,15-23.3,15-23.3c2.2,4.4,7.4,8.2,13.1,11.3c9.4,5.1,20,8.1,20,8.1
			C105,175.7,105.3,189.7,105.3,189.7z"/>
		<path class="st5" d="M158.7,85.8c0,0-0.1,0-0.1,0l-7.5,1.9c-3.3,0.8-6.7-0.9-7.6-4l-0.4-1.6c-0.8-2.9,1-6,4-7l2.5-0.6l5-1.3
			c3.3-0.8,6.7,0.9,7.6,4l0.4,1.6C163.4,81.8,161.7,84.8,158.7,85.8z"/>
		<path class="st12" d="M155.2,83.7l-3.7,1.6c0,0,0,0,0,0c-0.1,0-0.3,0.1-0.4,0.1c-0.1,0-0.1,0-0.2,0c0,0-0.1,0-0.1,0
			c-0.4,0-0.7-0.4-0.5-0.8c0.3-0.8,0.4-1.6,0.2-2.5l-0.1-0.3v0l-0.3-1c-0.2-0.8-0.7-1.5-1.3-2c-0.1-0.1-0.2-0.1-0.2-0.2
			c-0.7-0.5-0.5-1.6,0.3-1.9c0,0,0,0,0,0l4-0.6c1-0.3,2,0.5,2.2,1.5l0.3,1.2l0.7,2.5C156.4,82.3,156.2,83.4,155.2,83.7z"/>
		<path class="st8" d="M155.2,83.7l-3.7,1.6c0,0,0,0,0,0c-0.1,0-0.4,0.1-0.7,0.1c-0.4,0-0.7-0.4-0.5-0.8c0.3-0.8,0.4-1.6,0.2-2.5
			l-0.1-0.3v0l-0.3-1c-0.2-0.8-0.7-1.5-1.3-2c0.1-0.2,0.3-0.3,0.6-0.4c0,0,0,0,0,0l4-0.6c0.8-0.2,1.6,0.3,2,1l0.7,2.5
			C156.4,82.3,156.2,83.4,155.2,83.7z"/>
		<path class="st7" d="M94.9,125c0,0-1.6-14.4-3.2-17.1c-1.5-2.8-2.8-8.4-0.5-12.6c2.3-4.2,3.1-12.2,3.1-12.2
			c0.9,9.1-1.8,15.9,0.1,17.7c0.1,0.1,0.2,0,0.4-0.1L94.9,125z"/>
		<path class="st11" d="M75.7,101.6h54.7c2.6,0,4.8-2.1,4.8-4.8V76.4c0-2.6-2.1-4.8-4.8-4.8H75.7c-2.6,0-4.8,2.1-4.8,4.8v20.5
			C70.9,99.5,73.1,101.6,75.7,101.6z"/>
		<path class="st11" d="M131,67.8h-20.4c-2.2,0-4-1.8-4-4v-2.2c0-2.2,1.8-4,4-4H131c2.2,0,4,1.8,4,4v2.2C135,66,133.2,67.8,131,67.8
			z"/>
		<path class="st11" d="M129.8,142.8h-23.4c-2.6,0-4.8-2.1-4.8-4.8V135c0-2.6,2.1-4.8,4.8-4.8h23.4c2.6,0,4.8,2.1,4.8,4.8v3.1
			C134.6,140.7,132.5,142.8,129.8,142.8z"/>
		<path class="st11" d="M139.6,125h-21.5c-3.2,0-5.7-2.6-5.7-5.7v-6.7c0-3.2,2.6-5.7,5.7-5.7h21.5c3.2,0,5.7,2.6,5.7,5.7v6.7
			C145.3,122.4,142.8,125,139.6,125z"/>
		<path class="st5" d="M209.8,215.5h-44.4c-2.1-1.4-13.2-9-17.8-14.6c-1-1.2-4.5-11.5-7.2-19.8c-1.7-5.2-3.1-9.7-3.3-10.7
			c-0.1-0.4-0.1-1.1-0.2-2v0c-0.1-3.4,0-10,0.2-15.2v0v-0.1c0-0.2,0-0.4,0-0.7v0c0,0,0-0.1,0-0.1c0-0.9,0.1-1.8,0.1-2.5
			c0.1-1.9,0.1-3.4,0.2-4l0-0.3c0.1,0,2.2-1.2,5.1,0.9c0.7,0.5,1.3,1.7,1.9,3.3c0.4,1,0.7,2.1,1,3.4c1.2,4.7,2.1,10.2,2.6,11.7
			c0.8,2.4,9.8,13,10.4,13.6c0,0,0,0,0,0v-16.7l-6.8-18.3l-2.8-7.5l-1.4-3.8c0,0-2.2-3.6-4-7.8c-0.8-1.9-1.5-3.9-2-5.8
			c-0.1-0.4-0.2-0.9-0.3-1.3c-0.3-1.6-0.3-3.1,0.1-4.3c0.7-2.2,2.2-2.6,3.3-2.5c0.1,0,0.2,0,0.3,0c0.1,0,0.2,0,0.3,0.1
			c0.2,0.1,0.4,0.1,0.6,0.2c0.3,0.2,0.6,0.4,0.7,0.7c0,0,1,1.3,2.3,3c0.9,1.1,1.9,2.4,2.8,3.7c1.7,2.2,3.3,4.3,3.7,5
			c2.4,3.3,8.7,14.1,8.7,14.1l7.4,0.3c1.2,0.1,2.3,0.5,3.2,1.3c2.6,2.5,8.3,7.8,9,8.6c0,0.3,4.4,2.4,7.8,4.3c2.4,1,7.1,4.7,7.1,4.7
			c1,0.8,1.7,1.7,2.1,2.5c1.6,3.5,5.9,33.6,8,48.5C209.3,212,209.8,215.2,209.8,215.5z"/>
		<path class="st7" d="M164.1,137c0,0,6.9,11.2,7.8,11.7c0.9,0.5,4.5,1.2,4.9,0C177.1,147.5,164.1,137,164.1,137z"/>
		<path class="st7" d="M198.7,156.2C198.7,156.2,198.6,156.2,198.7,156.2c0,0-4.7-3.7-7.1-4.7c-3.1-1.7-7.1-3.7-7.8-4.2
			c0.7,0.8,5.9,6.6,7.8,7.1C193.3,154.8,197.3,155.8,198.7,156.2z"/>
		<path class="st7" d="M158.5,178.4v-16.7c0,0,4,6.6,4.3,10.3C163.1,175.6,161.1,181.5,158.5,178.4z"/>
		<path class="st12" d="M144.1,117.1c-0.6-1-1.6-2.8-2-3.8c-0.1-0.3-0.1-0.9,0.3-1.5c0.2-0.4,0.5-0.7,1-1.1c0.2-0.2,0.5-0.3,0.7-0.4
			c0.3-0.1,0.6-0.2,0.9-0.2c0.3,0,0.6,0.2,0.8,0.5c0.7,1,1.6,2.4,2.2,3.6c0.4,0.9,0.3,1.8-0.3,2.3l-0.3,0.2l-1.4,1
			C145.4,118.2,144.6,117.9,144.1,117.1z"/>
		<path class="st8" d="M144.1,117.1c-0.6-1-1.6-2.8-2-3.8c-0.1-0.3-0.1-0.9,0.3-1.5c0.1-0.1,0.2-0.2,0.3-0.2
			c0.2-0.2,0.5-0.3,0.7-0.4c0.3-0.1,0.6-0.2,0.9-0.2c0.3,0,0.6,0.2,0.8,0.5c0.7,1,1.6,2.4,2.2,3.6c0.3,0.6,0.3,1.1,0.1,1.6l-1.4,1
			C145.4,118.2,144.6,117.9,144.1,117.1z"/>
		<path class="st15" d="M95.6,85.5c0,2.1-0.7,4.1-1.9,5.7c-0.4,0.5-0.9,1-1.4,1.4c-1.6,1.4-3.7,2.2-6,2.2c-2.1,0-4-0.7-5.6-1.8
			c-0.7-0.5-1.3-1.1-1.8-1.8c-1.2-1.6-1.9-3.5-1.9-5.7c0-5.1,4.2-9.3,9.3-9.3C91.5,76.2,95.6,80.3,95.6,85.5z"/>
		<path class="st9" d="M90.1,89.9C90,89.8,90,89.8,90.1,89.9c-0.2-0.2-0.3-0.2-0.7-0.3c-0.2,0-0.5-0.1-1-0.1c0,0-0.1,0-0.1,0
			c0,0-0.1,0-0.1,0C88,89.3,88,88.8,88,88.3c0,0,0-0.1,0-0.1c0-0.2,0-0.4,0-0.6c0,0,0,0,0,0c0.3,0,0.4,0,0.4,0
			c0.5,0,0.8-1.4,0.9-2.4c0,0,0.2-0.6,0.2-1.2c0-0.4-0.1-0.7-0.3-1c-0.1-0.2-0.2-0.2-0.3-0.3c0,0-0.1-0.1-0.1-0.1
			c-0.5-0.5-2.3-2.4-3.6-1.3c0-0.1-0.4-1.4-2.4-1c0.1,0,1-0.1,1.2,0.3c0,0-0.8-0.3-1.3-0.1c-0.2,0.1-0.4,0.4-0.4,0.7c0,0,0,0,0,0
			c0,0,0,0.1,0,0.1v0c-0.1,0.3-0.1,0.6,0,0.7c0.1,0.3,0.6,1.2,1,1.2c0.1,0,0.3,0,0.4-0.1c-0.1,0.2-0.1,0.3-0.1,0.5
			c-0.4,1.8,0.8,3.1,1.4,2.8c0.4-0.2,0.7,0.5,0.7,0.5c-0.1,1.3-0.4,2.1-0.7,2.4c-0.1,0-0.3,0-0.6,0.1c0,0-0.9,0.1-1.6,0.4
			c0,0,0,0,0,0c-0.2,0.1-0.3,0.1-0.4,0.2c-0.1,0-0.1,0.1-0.1,0.1c0,0,0,0,0,0.1c-0.2,0.4-0.5,1.1-0.7,1.9c1.3,1,2.9,1.6,4.7,1.6
			c1.9,0,3.7-0.7,5.1-1.9C90.9,90.6,90.4,90.1,90.1,89.9z"/>
		<path class="st15" d="M112.4,80.8h-10.3c-0.4,0-0.8-0.4-0.8-0.8c0-0.4,0.4-0.8,0.8-0.8h10.3c0.4,0,0.8,0.4,0.8,0.8
			C113.2,80.4,112.9,80.8,112.4,80.8z"/>
		<path class="st15" d="M112.7,86.7h-10.8c-0.3,0-0.5-0.2-0.5-0.5c0-0.3,0.2-0.5,0.5-0.5h10.8c0.3,0,0.5,0.2,0.5,0.5
			C113.2,86.5,113,86.7,112.7,86.7z"/>
		<path class="st15" d="M107.8,89.3h-5.9c-0.3,0-0.5-0.2-0.5-0.5s0.2-0.5,0.5-0.5h5.9c0.3,0,0.5,0.2,0.5,0.5
			C108.3,89,108.1,89.3,107.8,89.3z"/>
		<path class="st15" d="M120.4,89.3h-9.9c-0.3,0-0.5-0.2-0.5-0.5s0.2-0.5,0.5-0.5h9.9c0.3,0,0.5,0.2,0.5,0.5S120.7,89.3,120.4,89.3z
			"/>
		<path class="st15" d="M129.8,86.7h-14.2c-0.3,0-0.5-0.2-0.5-0.5c0-0.3,0.2-0.5,0.5-0.5h14.2c0.3,0,0.5,0.2,0.5,0.5
			C130.3,86.5,130.1,86.7,129.8,86.7z"/>
		<path class="st15" d="M112.7,91.8h-10.8c-0.3,0-0.5-0.2-0.5-0.5c0-0.3,0.2-0.5,0.5-0.5h10.8c0.3,0,0.5,0.2,0.5,0.5
			C113.2,91.6,113,91.8,112.7,91.8z"/>
		<path class="st15" d="M129.8,91.8h-14.2c-0.3,0-0.5-0.2-0.5-0.5c0-0.3,0.2-0.5,0.5-0.5h14.2c0.3,0,0.5,0.2,0.5,0.5
			C130.3,91.6,130.1,91.8,129.8,91.8z"/>
		<path class="st15" d="M122.7,80.8h-7.2c-0.4,0-0.8-0.3-0.8-0.8v-0.1c0-0.4,0.3-0.8,0.8-0.8h7.2c0.4,0,0.8,0.3,0.8,0.8V80
			C123.4,80.4,123.1,80.8,122.7,80.8z"/>
		<path class="st10" d="M113.2,133.8h-7.3c-0.3,0-0.6-0.3-0.6-0.6c0-0.3,0.3-0.6,0.6-0.6h7.3c0.3,0,0.6,0.3,0.6,0.6
			C113.8,133.5,113.5,133.8,113.2,133.8z"/>
		<path class="st10" d="M113.4,136.8h-7.7c-0.2,0-0.4-0.2-0.4-0.4c0-0.2,0.2-0.4,0.4-0.4h7.7c0.2,0,0.4,0.2,0.4,0.4
			C113.8,136.6,113.6,136.8,113.4,136.8z"/>
		<path class="st10" d="M109.9,138.6h-4.2c-0.2,0-0.4-0.2-0.4-0.4c0-0.2,0.2-0.4,0.4-0.4h4.2c0.2,0,0.4,0.2,0.4,0.4
			C110.3,138.4,110.1,138.6,109.9,138.6z"/>
		<path class="st10" d="M118.9,138.6h-7.1c-0.2,0-0.4-0.2-0.4-0.4c0-0.2,0.2-0.4,0.4-0.4h7.1c0.2,0,0.4,0.2,0.4,0.4
			C119.3,138.4,119.1,138.6,118.9,138.6z"/>
		<path class="st10" d="M125.5,136.8h-10.1c-0.2,0-0.4-0.2-0.4-0.4c0-0.2,0.2-0.4,0.4-0.4h10.1c0.2,0,0.4,0.2,0.4,0.4
			C125.9,136.6,125.7,136.8,125.5,136.8z"/>
		<path class="st10" d="M113.4,140.4h-7.7c-0.2,0-0.4-0.2-0.4-0.4c0-0.2,0.2-0.4,0.4-0.4h7.7c0.2,0,0.4,0.2,0.4,0.4
			C113.8,140.3,113.6,140.4,113.4,140.4z"/>
		<path class="st10" d="M125.5,140.4h-10.1c-0.2,0-0.4-0.2-0.4-0.4c0-0.2,0.2-0.4,0.4-0.4h10.1c0.2,0,0.4,0.2,0.4,0.4
			C125.9,140.3,125.7,140.4,125.5,140.4z"/>
		<path class="st10" d="M120.5,133.8h-5.1c-0.3,0-0.5-0.2-0.5-0.5v-0.1c0-0.3,0.2-0.5,0.5-0.5h5.1c0.3,0,0.5,0.2,0.5,0.5v0.1
			C121,133.6,120.8,133.8,120.5,133.8z"/>
		<path class="st10" d="M118.2,60.7h-7.3c-0.3,0-0.6-0.3-0.6-0.6c0-0.3,0.3-0.6,0.6-0.6h7.3c0.3,0,0.6,0.3,0.6,0.6
			C118.8,60.4,118.5,60.7,118.2,60.7z"/>
		<path class="st10" d="M118.4,63.7h-7.7c-0.2,0-0.4-0.2-0.4-0.4c0-0.2,0.2-0.4,0.4-0.4h7.7c0.2,0,0.4,0.2,0.4,0.4
			C118.8,63.5,118.6,63.7,118.4,63.7z"/>
		<path class="st10" d="M114.9,65.5h-4.2c-0.2,0-0.4-0.2-0.4-0.4c0-0.2,0.2-0.4,0.4-0.4h4.2c0.2,0,0.4,0.2,0.4,0.4
			C115.3,65.3,115.1,65.5,114.9,65.5z"/>
		<path class="st10" d="M123.9,65.5h-7.1c-0.2,0-0.4-0.2-0.4-0.4c0-0.2,0.2-0.4,0.4-0.4h7.1c0.2,0,0.4,0.2,0.4,0.4
			S124.1,65.5,123.9,65.5z"/>
		<path class="st10" d="M130.5,63.7h-10.1c-0.2,0-0.4-0.2-0.4-0.4c0-0.2,0.2-0.4,0.4-0.4h10.1c0.2,0,0.4,0.2,0.4,0.4
			C130.9,63.5,130.7,63.7,130.5,63.7z"/>
		<path class="st10" d="M125.5,60.7h-5.1c-0.3,0-0.5-0.2-0.5-0.5v-0.1c0-0.3,0.2-0.5,0.5-0.5h5.1c0.3,0,0.5,0.2,0.5,0.5v0.1
			C126,60.4,125.8,60.7,125.5,60.7z"/>
		<path class="st10" d="M124.8,111.5h-8c-0.4,0-0.6-0.3-0.6-0.6c0-0.4,0.3-0.6,0.6-0.6h8c0.4,0,0.6,0.3,0.6,0.6
			S125.2,111.5,124.8,111.5z"/>
		<path class="st10" d="M125,114.7h-8.4c-0.2,0-0.4-0.2-0.4-0.4c0-0.2,0.2-0.4,0.4-0.4h8.4c0.2,0,0.4,0.2,0.4,0.4
			C125.5,114.6,125.3,114.7,125,114.7z"/>
		<path class="st10" d="M121.2,116.7h-4.6c-0.2,0-0.4-0.2-0.4-0.4c0-0.2,0.2-0.4,0.4-0.4h4.6c0.2,0,0.4,0.2,0.4,0.4
			C121.6,116.5,121.4,116.7,121.2,116.7z"/>
		<path class="st10" d="M131.1,116.7h-7.7c-0.2,0-0.4-0.2-0.4-0.4c0-0.2,0.2-0.4,0.4-0.4h7.7c0.2,0,0.4,0.2,0.4,0.4
			C131.5,116.5,131.3,116.7,131.1,116.7z"/>
		<path class="st10" d="M138.3,114.7h-11c-0.2,0-0.4-0.2-0.4-0.4c0-0.2,0.2-0.4,0.4-0.4h11c0.2,0,0.4,0.2,0.4,0.4
			C138.7,114.6,138.6,114.7,138.3,114.7z"/>
		<path class="st10" d="M125,118.7h-8.4c-0.2,0-0.4-0.2-0.4-0.4c0-0.2,0.2-0.4,0.4-0.4h8.4c0.2,0,0.4,0.2,0.4,0.4
			C125.5,118.5,125.3,118.7,125,118.7z"/>
		<path class="st10" d="M138.3,118.7h-11c-0.2,0-0.4-0.2-0.4-0.4c0-0.2,0.2-0.4,0.4-0.4h11c0.2,0,0.4,0.2,0.4,0.4
			C138.7,118.5,138.6,118.7,138.3,118.7z"/>
		<path class="st10" d="M125,120.8h-8.4c-0.2,0-0.4-0.2-0.4-0.4c0-0.2,0.2-0.4,0.4-0.4h8.4c0.2,0,0.4,0.2,0.4,0.4
			C125.5,120.6,125.3,120.8,125,120.8z"/>
		<path class="st10" d="M138.3,120.8h-11c-0.2,0-0.4-0.2-0.4-0.4c0-0.2,0.2-0.4,0.4-0.4h11c0.2,0,0.4,0.2,0.4,0.4
			C138.7,120.6,138.6,120.8,138.3,120.8z"/>
		<path class="st10" d="M132.8,111.5h-5.6c-0.3,0-0.6-0.3-0.6-0.6v-0.1c0-0.3,0.3-0.6,0.6-0.6h5.6c0.3,0,0.6,0.3,0.6,0.6v0.1
			C133.4,111.2,133.1,111.5,132.8,111.5z"/>
		<path class="st9" d="M105.4,54.6l-0.6,0.4l-0.6-0.4c0.1-0.2,0.3-0.3,0.6-0.3C105.1,54.3,105.3,54.4,105.4,54.6z"/>
		<path class="st9" d="M104.9,53.3c-0.6,0-1.1,0.3-1.4,0.7l0.4,0.3c0.2-0.3,0.6-0.5,1-0.5c0.4,0,0.8,0.2,1,0.5l0.4-0.3
			C105.9,53.6,105.4,53.3,104.9,53.3z"/>
		<path class="st9" d="M104.9,51.4c-1.2,0-2.3,0.6-2.9,1.5l0.4,0.3c0.6-0.8,1.5-1.3,2.6-1.3c1.1,0,2,0.5,2.6,1.3l0.4-0.3
			C107.1,52,106.1,51.4,104.9,51.4z"/>
		<path class="st9" d="M104.9,52.4c-0.9,0-1.6,0.4-2.1,1.1l0.4,0.3c0.4-0.5,1-0.9,1.7-0.9c0.7,0,1.3,0.3,1.7,0.9l0.4-0.3
			C106.5,52.8,105.7,52.4,104.9,52.4z"/>
		<path class="st15" d="M101.7,115.2c0,0.8,0.3,1.6,0.8,2.2c0.2,0.2,0.3,0.4,0.5,0.6c0.2,0.2,0.4,0.3,0.6,0.4
			c0.5,0.3,1.1,0.4,1.7,0.4c0.8,0,1.5-0.2,2.1-0.7c0,0,0.1,0,0.1-0.1c0.3-0.2,0.5-0.4,0.7-0.7c0.5-0.6,0.8-1.4,0.8-2.2
			c0-2-1.6-3.7-3.7-3.7C103.3,111.5,101.7,113.2,101.7,115.2z"/>
		<path class="st9" d="M106.3,117.5l-0.3-0.3c0,0-0.1,0-0.1,0c-0.1,0-0.1-0.1-0.2-0.1c0-0.1,0-0.3,0.1-0.4c0.1-0.4,0.1-0.6,0.1-0.7
			c0.2,0,0.3,0,0.3,0c0.3-0.1,0.4-1.2,0.3-1.8c0.1,0,0.1,0,0.2,0c0.3-0.1,0.3-0.5,0.3-0.5s-0.1,0.1-0.2,0.2c0,0,0.4-0.6-0.1-1
			c-0.5-0.4-1-0.1-1.3-0.1c-0.6,0-1,0.1-1.2,0.5c-0.2,0.4-0.1,1.5,0.3,2c0,0,0,0.1,0,0.1c0,0.2,0.1,0.3,0.2,0.4
			c-0.1,0.5-0.3,0.8-0.5,1.1c-0.1,0.1-0.2,0.2-0.3,0.4h0c-0.2,0.3-0.3,0.6-0.5,1c0.2,0.1,0.4,0.3,0.7,0.4c0,0,0,0,0.1,0h0
			c0,0,0.1,0,0.1,0c0.1,0,0.1,0.1,0.2,0.1c0.1,0,0.1,0,0.2,0.1c0,0,0.1,0,0.1,0c0,0,0.1,0,0.1,0h0c0,0,0,0,0.1,0c0,0,0.1,0,0.1,0
			c0,0,0,0,0,0c0,0,0.1,0,0.1,0c0,0,0.1,0,0.1,0c0,0,0.1,0,0.1,0c0,0,0.1,0,0.1,0c0,0,0.1,0,0.1,0s0.1,0,0.1,0h0c0,0,0,0,0,0
			c0,0,0,0,0.1,0c0,0,0,0,0,0c0,0,0.1,0,0.1,0c0.5-0.1,1-0.2,1.4-0.4C106.8,118,106.6,117.8,106.3,117.5z"/>
		<path class="st15" d="M137.6,136.4c0,0.8,0.3,1.6,0.8,2.2c0.2,0.2,0.3,0.4,0.5,0.6c0.6,0.5,1.5,0.9,2.4,0.9c0.8,0,1.6-0.3,2.2-0.7
			c0.3-0.2,0.5-0.4,0.7-0.7c0.5-0.6,0.8-1.4,0.8-2.2c0-2-1.6-3.7-3.7-3.7C139.2,132.7,137.6,134.4,137.6,136.4z"/>
		<path class="st9" d="M143.1,138.5C143.1,138.5,143.1,138.5,143.1,138.5C143.1,138.5,143.1,138.4,143.1,138.5
			c-0.1-0.1-0.2-0.2-0.3-0.2c0,0,0,0,0,0c-0.3-0.1-0.7-0.2-0.7-0.2c-0.1,0-0.2,0-0.3,0c-0.1-0.1-0.3-0.5-0.3-1.1
			c0,0,0.1-0.3,0.3-0.2c0.3,0.2,0.8-0.5,0.7-1.3c0-0.1,0-0.2-0.1-0.2c0.1,0,0.1,0.1,0.2,0.1c0.2,0,0.4-0.4,0.4-0.6
			c0-0.1,0-0.6-0.2-0.7c-0.2-0.1-0.6,0-0.6,0c0.1-0.2,0.5-0.1,0.6-0.1c-0.9-0.2-1.1,0.4-1.1,0.4c-0.6-0.5-1.5,0.4-1.7,0.6
			c0,0,0,0,0,0c-0.1,0-0.1,0.1-0.2,0.1c-0.1,0.1-0.2,0.3-0.2,0.5c0,0.3,0.1,0.6,0.1,0.6c0.1,0.5,0.2,1.1,0.4,1.1c0,0,0.1,0,0.2,0v0
			c0,0.1,0,0.2,0,0.3v0.1c0,0.3,0,0.5-0.1,0.5c0,0,0,0-0.1,0c0,0-0.1,0-0.1,0c-0.2,0-0.3,0.1-0.4,0.1c-0.2,0-0.3,0.1-0.3,0.1
			c0,0,0,0,0,0c-0.1,0.1-0.4,0.4-0.7,0.9c0.6,0.5,1.5,0.9,2.4,0.9c0.8,0,1.6-0.3,2.2-0.7C143.3,139,143.2,138.7,143.1,138.5z"/>
		<path class="st15" d="M137.6,62.4c0,0.8,0.3,1.6,0.8,2.2c0.2,0.2,0.3,0.4,0.5,0.6c0.6,0.5,1.5,0.9,2.4,0.9c0.8,0,1.6-0.3,2.2-0.7
			c0.3-0.2,0.5-0.4,0.7-0.7c0.5-0.6,0.8-1.4,0.8-2.2c0-2-1.6-3.7-3.7-3.7C139.2,58.8,137.6,60.4,137.6,62.4z"/>
		<path class="st9" d="M143.1,64.5C143.1,64.5,143.1,64.5,143.1,64.5C143.1,64.5,143.1,64.5,143.1,64.5c-0.1-0.1-0.2-0.2-0.3-0.2
			c0,0,0,0,0,0c-0.3-0.1-0.7-0.2-0.7-0.2c-0.1,0-0.2,0-0.3,0c0,0-0.1-0.1-0.1-0.1c-0.1-0.2-0.2-0.5-0.2-1c0,0,0.1-0.3,0.3-0.2
			c0.3,0.2,0.8-0.5,0.7-1.3c0-0.1,0-0.2-0.1-0.2c0.1,0,0.1,0.1,0.2,0.1c0.2,0,0.4-0.4,0.4-0.6c0-0.1,0-0.6-0.2-0.7
			c-0.2-0.1-0.6,0-0.6,0c0.1-0.2,0.5-0.1,0.6-0.1c-0.9-0.2-1.1,0.4-1.1,0.4c-0.6-0.5-1.5,0.4-1.7,0.6c0,0,0,0,0,0
			c-0.1,0-0.1,0.1-0.2,0.1c-0.1,0.1-0.2,0.3-0.2,0.5c0,0.3,0.1,0.6,0.1,0.6c0.1,0.5,0.2,1.1,0.4,1.1c0,0,0.1,0,0.2,0v0
			c0,0.1,0,0.2,0,0.3v0.1c0,0.3,0,0.5-0.1,0.5c0,0,0,0-0.1,0c0,0-0.1,0-0.1,0c-0.2,0-0.3,0.1-0.4,0.1c-0.2,0-0.3,0.1-0.3,0.1
			c0,0,0,0,0,0c-0.1,0.1-0.4,0.4-0.7,0.9c0,0,0.1,0.1,0.1,0.1l0,0c0,0,0.1,0,0.1,0.1c0,0,0,0,0.1,0c0,0,0,0,0.1,0c0,0,0.1,0,0.1,0.1
			c0,0,0,0,0.1,0c0,0,0.1,0,0.1,0.1c0,0,0.1,0,0.1,0.1c0,0,0,0,0,0c0,0,0,0,0,0c0,0,0.1,0,0.1,0c0,0,0,0,0,0c0,0,0,0,0,0
			c0,0,0,0,0,0c0,0,0.1,0,0.1,0c0,0,0.1,0,0.1,0c0,0,0,0,0,0c0,0,0,0,0,0c0,0,0.1,0,0.1,0c0,0,0.1,0,0.1,0c0,0,0.1,0,0.1,0
			c0,0,0,0,0,0c0,0,0,0,0.1,0c0.1,0,0.2,0.1,0.3,0.1c0,0,0.1,0,0.1,0c0,0,0,0,0,0s0,0,0,0c0,0,0.1,0,0.1,0h0h0c0,0,0.1,0,0.1,0h0
			c0,0,0,0,0,0c0,0,0.1,0,0.1,0h0c0,0,0,0,0,0c0,0,0,0,0,0c0,0,0.1,0,0.1,0c0.8,0,1.6-0.3,2.2-0.7C143.3,65,143.2,64.7,143.1,64.5z"
			/>
		<path class="st7" d="M187.5,208.6l-13.3,6.9h-8.8c-2.1-1.4-13.2-9-17.8-14.6c-1-1.2-4.5-11.5-7.2-19.8c0.4,1.1,8,17.3,10.1,19.1
			c2.2,1.8,13.5,12.6,16.7,12.4C170.3,212.6,186.5,208.9,187.5,208.6C187.5,208.6,187.5,208.6,187.5,208.6z"/>
		<path class="st16" d="M214.2,215.5h-47.8c2.4-0.9,11.6-4.4,21.1-6.8c0,0,0,0,0.1,0c8.2-2.1,16.6-3.3,21.1-1.4l0,0.1L214.2,215.5z"
			/>
		<path class="st7" d="M137.2,152.3c0.8-0.3,1.9-0.5,2.5,0.4c0.9,1.4-2.3,14-2.7,15.6L137.2,152.3z"/>
		<path class="st8" d="M137.4,145.5l-0.3,7.6c0,0,1.6,0.3,2.5-0.4C140.6,152.1,140.1,145.5,137.4,145.5z"/>
		<path class="st17" d="M105.3,189.7c-4.6,0.9-14.5-2.7-14.5-2.7l1.6-15.4l-11.2,12.8c-5.7-2.1-14.6-7.6-19.9-11.1
			c13.6-1.5,23.7-14.9,23.7-14.9c9.4,5.1,20,8.1,20,8.1C105,175.7,105.3,189.7,105.3,189.7z"/>
		<path class="st6" d="M73.8,175.7c0-1,0.8-1.9,1.9-1.9c1,0,1.9,0.8,1.9,1.9c0,1-0.8,1.9-1.9,1.9C74.6,177.6,73.8,176.7,73.8,175.7z
			"/>
	</g>
</g>
</svg>
