<?xml version="1.0" encoding="utf-8"?>
<!-- Generator: Adobe Illustrator 24.0.1, SVG Export Plug-In . SVG Version: 6.00 Build 0)  -->
<svg version="1.1" id="Layer_1" xmlns="http://www.w3.org/2000/svg" xmlns:xlink="http://www.w3.org/1999/xlink" x="0px" y="0px"
	 viewBox="0 0 279 252.2" style="enable-background:new 0 0 279 252.2;" xml:space="preserve">
<style type="text/css">
	.st0{fill:#04D7A6;}
	.st1{fill:#FFFFFF;}
	.st2{fill:#0EB889;}
	.st3{fill:none;}
	.st4{fill:#A1FFE3;}
	.st5{fill:#0BD5A4;}
	.st6{fill:#31404F;}
	.st7{fill:#212C36;}
	.st8{fill:#AAB2BD;}
	.st9{fill:#DEF3EE;}
	.st10{fill:#FEFBFF;}
	.st11{fill:#F5C185;}
	.st12{fill:#7F2F24;}
	.st13{fill:#E2A971;}
	.st14{fill:#8FB7B7;}
	.st15{fill:#353035;}
	.st16{fill:#443C44;}
	.st17{fill:#231F20;}
	.st18{fill:#414042;}
	.st19{fill:#C1FFE4;}
	.st20{fill:#69B88B;}
	.st21{fill:#FFB244;}
	.st22{fill:#79D5A6;}
	.st23{opacity:0.1;enable-background:new    ;}
	.st24{fill:#A1FFE3;filter:url(#Adobe_OpacityMaskFilter);}
	.st25{mask:url(#mask0_1_);}
	.st26{opacity:0.75;}
	.st27{fill:#FFB27D;}
	.st28{fill:#F99746;}
	.st29{fill:#EFA26F;}
	.st30{fill:#FFC197;}
	.st31{fill:#FFD3B6;}
	.st32{fill:#ED7D2B;}
	.st33{fill:#DCEAFF;}
	.st34{fill:#D2E3FC;}
	.st35{fill:#CBE1FD;}
</style>
<path class="st0" d="M122.7-1189.5c25.9,0,46.8-21.1,46.8-47.2c0-26.1-21-47.2-46.8-47.2s-46.8,21.1-46.8,47.2
	C75.9-1210.7,96.8-1189.5,122.7-1189.5z"/>
<path class="st1" d="M120-1238.8v0.5h-0.3C119.8-1238.5,119.9-1238.7,120-1238.8z"/>
<path class="st1" d="M140.6-1204.2h-11.5l14.3-29.8c0.7-1.5,0.1-3.4-1.4-4.1c0.7-1.4,0.6-3-0.1-4.5l-14.7-30
	c-0.9-1.8-2.6-2.9-4.6-2.9l0,0c-0.2,0-0.5,0-0.7,0.1c-0.2,0-0.5-0.1-0.7-0.1H105c-1.7,0-3.1,1.4-3.1,3.1c0,1.7,1.4,3.1,3.1,3.1h11.5
	l-14.5,29.9c-0.7,1.5-0.1,3.4,1.4,4.1c-0.7,1.4-0.6,3,0.1,4.5l14.7,30c0.9,1.8,2.6,2.9,4.6,2.9l0,0c0.2,0,0.5,0,0.7-0.1
	c0.2,0,0.5,0.1,0.7,0.1h16.2c1.7,0,3.1-1.4,3.1-3.1C143.6-1202.8,142.3-1204.2,140.6-1204.2z M126.1-1260.6l9.5,19.3h-9.5
	C126.1-1241.3,126.1-1260.6,126.1-1260.6z M125.4-1235.1H137l-11.7,24.4L125.4-1235.1L125.4-1235.1z M120-1262.7v24.4h-11.7
	L120-1262.7z M109.8-1232.1h9.5v19.3L109.8-1232.1z"/>
<path class="st1" d="M125.7-1235.1c-0.1,0.2-0.2,0.4-0.3,0.5v-0.5H125.7z"/>
<path class="st0" d="M77.9-1187.3v28.6H66.1v-28.6H57v-11.5h29.9v11.5H77.9L77.9-1187.3z"/>
<path class="st0" d="M104.3-1188.6c4.1,0,7.7,1.5,10.6,4.5s4.4,6.6,4.4,10.7c0,4.2-1.5,7.8-4.5,10.8s-6.6,4.5-10.8,4.5
	c-4.2,0-7.8-1.5-10.8-4.5s-4.5-6.6-4.5-10.8c0-4.3,1.5-7.9,4.5-10.8C96.2-1187.2,99.9-1188.6,104.3-1188.6z M104-1177.8
	c-1.2,0-2.2,0.4-3,1.3s-1.2,1.9-1.2,3.1c0,1.2,0.4,2.3,1.2,3.1c0.8,0.9,1.8,1.3,3,1.3s2.2-0.4,3-1.3c0.8-0.9,1.2-1.9,1.2-3.1
	c0-1.2-0.4-2.3-1.2-3.1C106.2-1177.4,105.2-1177.8,104-1177.8z"/>
<path class="st0" d="M134.1-1147.9h-10.9v-24.4c0-4.5,1.2-8.1,3.5-11c1.3-1.6,3-2.9,5.1-3.9c2.1-1,4.2-1.4,6.4-1.4
	c4.3,0,8,1.5,11,4.4c3,2.9,4.5,6.5,4.5,10.8c0,4.2-1.5,7.7-4.4,10.8c-3,3-6.5,4.5-10.5,4.5c-0.7,0-1.6-0.1-2.9-0.2v-12.1
	c0.9,0.7,1.8,1.1,2.7,1.1c1.1,0,2.1-0.4,2.9-1.3c0.8-0.8,1.2-1.8,1.2-3c0-1.2-0.4-2.1-1.3-3c-0.8-0.8-1.8-1.2-3-1.2
	c-2.8,0-4.2,1.9-4.2,5.8L134.1-1147.9L134.1-1147.9z"/>
<path class="st0" d="M187.1-1198.8v26c0,4.6-1.4,8.2-4.1,11c-2.7,2.7-6.3,4.1-10.8,4.1s-7.9-1.3-10.3-4c-2.4-2.7-3.6-6.5-3.6-11.5
	v-25.6h11.8v25.6c0,2.4,0.9,3.7,2.6,3.7c1.7,0,2.5-1.2,2.5-3.7v-25.6H187.1z"/>
<path class="st0" d="M207.3-1172.6v-10.5c2.4,0,3.6-0.9,3.6-2.8c0-1.7-0.9-2.5-2.7-2.5s-2.8,1.2-2.8,3.5v26.2h-11.8v-25
	c0-2.6,0.3-4.7,0.8-6.4c0.5-1.7,1.4-3.2,2.6-4.6c1.4-1.6,3.1-2.8,5.2-3.8c2.1-0.9,4.3-1.4,6.5-1.4c4,0,7.4,1.4,10.2,4.1
	c2.8,2.7,4.1,6.1,4.1,10.2c0,3.9-1.2,7.1-3.7,9.6c-2.3,2.3-5.7,3.4-10.2,3.4H207.3z"/>
<g>
	<path class="st2" d="M137-856c51.6,0,93.5-41.9,93.5-93.5c0-51.6-41.8-93.5-93.5-93.5s-93.5,41.9-93.5,93.5S85.4-856,137-856z"/>
	<rect x="61.1" y="-997.7" class="st3" width="105.3" height="102.2"/>
	<path class="st4" d="M147.7-992.5H70.9c-2.7,0-4.9,2.2-4.9,4.9v52.8c0,2.7,2.2,4.9,4.9,4.9h15v20.9l20.6-20.9h41.2
		c2.7,0,4.9-2.2,4.9-4.9v-52.8C152.5-990.3,150.3-992.5,147.7-992.5z"/>
	<path class="st5" d="M103.5-982.3c0.8-0.1,1.5-0.2,2.3-0.2c0.7-0.1,1.5-0.1,2.4-0.1c0.7,0,1.5,0,2.2,0.1c0.7,0.1,1.5,0.1,2.4,0.2
		l12.7,40.7c-1.5,0.2-3.1,0.4-4.6,0.4c-1.4,0-2.8-0.1-4.2-0.4l-2.3-8.1H101l-2.3,8.1c-1.4,0.2-2.6,0.4-3.9,0.4
		c-1.4,0-2.8-0.1-4.1-0.4L103.5-982.3z M112.5-956.7l-4.7-17.1l-4.9,17.1H112.5z"/>
	<rect x="120.2" y="-977.3" class="st3" width="105.3" height="102.2"/>
	<path class="st5" d="M207-972.2h-76.7c-2.7,0-4.9,2.2-4.9,4.9v52.8c0,2.7,2.2,4.9,4.9,4.9h41.2l20.6,20.9v-20.9h15
		c2.7,0,4.9-2.2,4.9-4.9v-52.8C211.9-970.1,209.7-972.2,207-972.2z"/>
	<path class="st4" d="M191-937.5l-6.1-4.3c-0.8-0.6-2.3-1-3.3-1h-9.2v-12.4h12.1c1,0,1.2-0.5,0.3-1l-6.1-4.3c-0.8-0.6-2.3-1-3.3-1
		h-21.5c-1,0-1.2,0.5-0.3,1l6.2,4.3c0.8,0.6,2.3,1,3.3,1h3v7.1l-7.4-7.4c-0.7-0.7-1.2-0.5-1,0.5l1.3,7.4c0.2,1,0.9,2.4,1.6,3.1
		l1.8,1.8h-14.6c-1,0-1.2,0.5-0.3,1l6.2,4.3c0.8,0.6,2.3,1,3.3,1h9.2v13.8c0,1,0.5,1.2,1,0.3l4.3-6.2c0.6-0.8,1-2.3,1-3.3v-1
		l12.1,12.1c0.7,0.7,1.2,0.5,1-0.5l-1.3-7.4c-0.2-1-0.9-2.4-1.6-3.1l-4.8-4.8h13C191.7-936.5,191.9-937,191-937.5z"/>
</g>
<g>
	<path class="st5" d="M137.1-774.2h-10.2v195.6h10.2V-774.2z"/>
	<path class="st2" d="M147.3-774.2h-10.2v195.6h10.2V-774.2z"/>
	<path class="st5" d="M137-582.2H19.4v10.9H137V-582.2z"/>
	<path class="st2" d="M264-582.2H137.1v10.9H264V-582.2z"/>
	<path class="st5" d="M196.3-707.8c-1.2,0-2.2,1-2.2,2.2c0,1.2,1,2.2,2.2,2.2H216v-4.3H196.3z"/>
	<path class="st2" d="M235.7-707.8H216v4.3h19.7c1.2,0,2.2-1,2.2-2.2C238-706.9,237-707.8,235.7-707.8z"/>
	<path class="st6" d="M170.8-601.4c-0.2,0-0.5,0-0.7,0c-6-0.2-10.2-2.3-12.6-6.5c-5.6-9.8,0.7-28.3,7.8-41.2
		c8.7-15.8,5.3-31.5,5.3-31.6c-0.1-0.5,0.2-1,0.8-1.2c0.5-0.1,1,0.2,1.2,0.8c0.2,0.6,3.6,16.5-5.5,33c-7.4,13.4-12.7,30.8-7.8,39.3
		c2,3.5,5.7,5.3,10.9,5.5c5,0.1,8.6-1.4,10.6-4.6c5.6-8.7-0.9-26.9-2-29.2c-0.2-0.3-0.1-0.6,0.1-0.9c0.2-0.3,0.5-0.5,0.8-0.5h13.8
		c0.5,0,1,0.5,1,1c0,0.5-0.5,1-1,1H181c1.8,4.9,7,21.1,1.4,29.8C180.1-603.3,176.2-601.4,170.8-601.4z"/>
	<path class="st7" d="M174.1-677.4v1.4c0,0.6-0.5,1.2-1.1,1.2h-1.6c-0.6,0-1.2-0.5-1.2-1.1v-1.4L174.1-677.4z"/>
	<path class="st7" d="M177.3-677.8c-0.4-0.8-1.5-3.1-1.6-4.1c0-0.1,0-0.2,0.1-0.3c0.5-0.6,2.3-1,2.6-1v-1.2c-0.2,0-2.5,0.3-3.4,1.4
		c-0.3,0.3-0.5,0.8-0.4,1.2c0.2,1.5,1.7,4.5,1.8,4.6L177.3-677.8z"/>
	<path class="st8" d="M178.1-693.3l2.7-4.4l5.3-3l-1-1.8l-5.6,3.1c-0.2,0.1-0.3,0.2-0.3,0.3l-2.8,4.7L178.1-693.3z"/>
	<path class="st2" d="M169.1-687.5l0.1,9.7c0,0.6,0.5,1.2,1.2,1.1l8.1-0.1c0.6,0,1.2-0.5,1.1-1.2l-0.1-9.7c0-0.6-0.5-1.2-1.2-1.1
		l-8.1,0.1C169.6-688.7,169.1-688.2,169.1-687.5z M172.7-685.3c0-0.3,0.2-0.6,0.6-0.6l4-0.1c0.3,0,0.6,0.2,0.6,0.6l0.1,6.7
		c0,0.3-0.2,0.6-0.6,0.6l-4,0.1c-0.3,0-0.6-0.2-0.6-0.6L172.7-685.3z"/>
	<path class="st7" d="M169.1-687.1l-1.4-2.1l1.6-3.5l5.2-2.8l5.1,3.2v5.1L169.1-687.1z"/>
	<path class="st7" d="M174.9-694.7l0.8-1.1c0.2-0.3,0.6-0.3,0.8-0.2l2.7,1.9c0.3,0.2,0.3,0.6,0.2,0.8l-0.8,1.1L174.9-694.7z"/>
	<path class="st2" d="M193.6-643.4h-9.3v11.4h9.3V-643.4z"/>
	<path class="st5" d="M216-657.1h-28.6v65.6H216V-657.1z"/>
	<path class="st2" d="M216-706.2h-24.5c-2.3,0-4.1,1.9-4.1,4.1v44.9H216V-706.2z"/>
	<path class="st5" d="M244.6-657.1V-702c0-2.3-1.9-4.1-4.1-4.1H216v49H244.6z"/>
	<path class="st2" d="M244.6-657.1H216v65.6h28.6V-657.1z"/>
	<path class="st9" d="M216.1-694.2L216.1-694.2l-0.1,30.9h0.1V-694.2z"/>
	<path class="st10" d="M216-697.1h-20.6c-2.3,0-4.1,1.9-4.1,4.1v17.3H216V-697.1z"/>
	<path class="st10" d="M216-677.7h-24.7v7.4c0,2.3,1.9,4.1,4.1,4.1h20.6v-0.1H216V-677.7z"/>
	<path class="st9" d="M216.1-675.6h24.7V-693c0-2.3-1.9-4.1-4.1-4.1H216v0.1h0.1V-675.6z"/>
	<path class="st9" d="M216.1-677.7v11.5h20.6c2.3,0,4.1-1.9,4.1-4.1v-7.4H216.1z"/>
	<path class="st4" d="M216-594.5H178v12.3H216V-594.5z"/>
	<path class="st4" d="M254.1-594.5H216v12.3h38.1V-594.5z"/>
	<path class="st5" d="M60.3-707.8c-1.2,0-2.2,1-2.2,2.2c0,1.2,1,2.2,2.2,2.2H80v-4.3H60.3z"/>
	<path class="st2" d="M99.8-707.8H80.1v4.3h19.7c1.2,0,2.2-1,2.2-2.2C101.9-706.9,101-707.8,99.8-707.8z"/>
	<path class="st6" d="M34.8-601.4c-0.2,0-0.5,0-0.7,0c-6-0.2-10.2-2.3-12.6-6.5c-5.6-9.8,0.7-28.3,7.8-41.2
		c8.7-15.8,5.3-31.5,5.3-31.6c-0.1-0.5,0.2-1,0.8-1.2c0.5-0.1,1,0.2,1.2,0.8c0.2,0.6,3.6,16.5-5.5,33c-7.4,13.4-12.7,30.8-7.8,39.3
		c2,3.5,5.7,5.4,10.9,5.5c5,0.1,8.6-1.4,10.6-4.6c5.6-8.7-0.9-26.9-2-29.3c-0.2-0.3-0.1-0.6,0.1-0.9s0.5-0.5,0.8-0.5h13.9
		c0.5,0,1,0.5,1,1c0,0.5-0.5,1-1,1H45.1c1.8,4.9,7,21.1,1.4,29.8C44.1-603.3,40.2-601.4,34.8-601.4z"/>
	<path class="st7" d="M38.1-677.4v1.4c0,0.6-0.5,1.2-1.1,1.2h-1.6c-0.6,0-1.2-0.5-1.2-1.1v-1.4L38.1-677.4z"/>
	<path class="st7" d="M41.3-677.8c-0.4-0.8-1.5-3.1-1.6-4.1c0-0.1,0-0.2,0.1-0.3c0.5-0.6,2.3-1,2.6-1v-1.2c-0.2,0-2.5,0.3-3.4,1.4
		c-0.3,0.3-0.5,0.8-0.4,1.2c0.2,1.5,1.7,4.5,1.8,4.6L41.3-677.8z"/>
	<path class="st8" d="M42.1-693.3l2.7-4.4l5.3-3l-1-1.8l-5.6,3.1c-0.2,0.1-0.3,0.2-0.3,0.3l-2.8,4.7L42.1-693.3z"/>
	<path class="st2" d="M33.1-687.5l0.1,9.7c0,0.6,0.5,1.2,1.2,1.1l8.1-0.1c0.6,0,1.2-0.5,1.1-1.2l-0.1-9.7c0-0.6-0.5-1.2-1.2-1.1
		l-8.1,0.1C33.6-688.7,33.1-688.2,33.1-687.5z M36.7-685.3c0-0.3,0.2-0.6,0.6-0.6l4-0.1c0.3,0,0.6,0.2,0.6,0.6l0.1,6.7
		c0,0.3-0.2,0.6-0.6,0.6l-4,0.1c-0.3,0-0.6-0.2-0.6-0.6L36.7-685.3z"/>
	<path class="st7" d="M33.1-687.1l-1.4-2.1l1.5-3.5l5.3-2.8l5.1,3.2l-0.1,5.1L33.1-687.1z"/>
	<path class="st7" d="M39-694.7l0.8-1.1c0.2-0.3,0.6-0.3,0.8-0.2l2.7,1.9c0.3,0.2,0.3,0.6,0.2,0.8l-0.8,1.1L39-694.7z"/>
	<path class="st2" d="M57.6-643.4h-9.3v11.4h9.3V-643.4z"/>
	<path class="st5" d="M80.1-657.1H51.5v65.6h28.6V-657.1z"/>
	<path class="st2" d="M80.1-706.2H55.6c-2.3,0-4.1,1.9-4.1,4.1v44.9h28.6V-706.2z"/>
	<path class="st5" d="M108.7-657.1V-702c0-2.3-1.9-4.1-4.1-4.1H80.1v49H108.7z"/>
	<path class="st2" d="M108.7-657.1H80.1v65.6h28.6V-657.1z"/>
	<path class="st9" d="M80.1-694.2L80.1-694.2l-0.1,30.9h0.1V-694.2z"/>
	<path class="st10" d="M80.1-697.1H59.5c-2.3,0-4.1,1.9-4.1,4.1v17.3h24.7V-697.1z"/>
	<path class="st10" d="M80.1-677.7H55.3v7.4c0,2.3,1.9,4.1,4.1,4.1h20.6v-0.1h-0.1V-677.7z"/>
	<path class="st9" d="M80.1-675.6h24.7V-693c0-2.3-1.9-4.1-4.1-4.1H80.1v0.1h0.1V-675.6z"/>
	<path class="st9" d="M80.1-677.7v11.5h20.6c2.3,0,4.1-1.9,4.1-4.1v-7.4H80.1z"/>
	<path class="st4" d="M80.1-594.5H42v12.3h38.1V-594.5z"/>
	<path class="st4" d="M118.1-594.5H80.1v12.3h38.1V-594.5z"/>
	<path class="st4" d="M137.3-788.6H15v37h122.3V-788.6z"/>
	<path class="st4" d="M259.6-788.6H137.3v37h122.3V-788.6z"/>
	<path class="st5" d="M137.3-788.6H15v20.5h122.3V-788.6z"/>
	<path class="st2" d="M259.6-788.6H137.3v20.5h122.3V-788.6z"/>
</g>
<g>
	<path class="st2" d="M261.4-309.2H17.7v12.6h243.7V-309.2z"/>
	<path class="st11" d="M73-465.5c1.3-0.3,2.6-0.7,3.9-1.1c-0.4-0.9-1.1-1.7-1.6-2.4c-1.2-1.4-2.5-2.6-3.6-4.1
		c-0.6-0.8-0.1-2,0.6-2.4c0.9-0.5,1.9-0.1,2.4,0.6c2.7,3.7,5.4,7.4,7.6,11.5c1.5,2.8,2.6,9.4,5.7,10.8c1.7,0.7,4.8,0.5,6.7,0.8
		c3.3,0.6,6.7,1.6,10.1,2.5c0.1,0.1,0.2,0.2,0.3,0.3c3.9,0.2,7.7,0.9,11.4,2.2c0.3-0.2,0.7-0.5,1.1-0.7c0.4-0.1,0.7-0.1,1.1-0.1v0.1
		c0.1,0.2,0.2,0.5,0.2,0.6c0.1,0.1,0.1,0.2,0.1,0.2c0.1,0.1,0.1,0.2,0.1,0.3c0.1,0.5,0.2,0.9,0.3,1.3v0.1c0,0.2,0,0.3,0.1,0.5
		c0,0.5,0,0.9,0,1.3c0,0.2,0,0.3-0.1,0.5c-0.1,0.5-0.2,0.8-0.3,1.3c-0.1,0.3-0.2,0.6-0.3,1c-0.7,0-1.4-0.1-2.1-0.2
		c-2.3-0.3-3.9-0.3-6.4,0c-5.5,0.6-11,0.7-16.5,0.2c-2.4-0.2-5.1-1.1-7.7-2.5c-0.9-0.1-1.9-0.2-2.7-0.5c-2.2-0.7-3.8-2.3-5.4-3.9
		c-1.3-1.4-2.6-2.9-3.8-4.4c-0.7-1-1.5-2-2-3.2c-0.1-0.1-0.2-0.2-0.3-0.3c-2.5-3.1-4.3-6.6-5.9-10.2C68.3-464.9,70.5-464.9,73-465.5
		z"/>
	<path class="st12" d="M39.3-513.2c-0.1-1.1-0.1-2.3,0.1-3.6c0.5-3.4,2.7-7.4,6.6-7.4c1,0,1.9,0.2,2.9,0.2c1.5,0,2.5-1.1,3.9-1.4
		c1.4-0.3,2.8-0.2,4.2,0.1c2.6,0.6,5.5,2,6.8,4.5c0.8,0.3,1.4,0.8,1.9,1.5c0.3,0.1,0.5,0.3,0.7,0.7c1.7,2.6,1.5,6.1,0.8,9.1
		c-0.5,2.4-1.4,4.7-2.5,6.9c-0.2,2-1,4-2.6,5.1c-1.5,1-4.1,0.5-5.9,0.5c-3.8-0.2-7.6-1.5-11.4-0.4c-1.4,0.4-2.9-0.3-3.6-1.5
		c-0.4-0.6-0.6-1.2-0.7-1.9c-0.6-1.1-0.8-2.4-1.1-3.5C38.8-507.3,38.7-510.4,39.3-513.2z"/>
	<path class="st11" d="M60.2-482.9c0-0.2-0.1-0.3-0.1-0.5c-0.5-1.4-1-2.7-1.2-4.1c0-0.2-0.1-0.3-0.1-0.4c-0.3-1.6-0.5-3.2-0.5-4.8
		c-0.3-0.2-0.8-0.1-0.8,0.3c0,0.2,0,0.5,0,0.7c-0.7-0.3-1.7-0.3-2.5,0.1c-0.8-0.1-1.6,0.1-2.3,0.7c-0.3,0-0.6,0.1-1,0.2h-0.1
		c-0.5-0.6-1.1-0.8-1.7-0.9c-0.8-0.8-2.3-1.1-3.4-0.5c0,0.5-0.1,1-0.2,1.6c-0.1,0.7-0.2,1.5-0.4,2.1c-0.3,1.6-0.9,3.1-1.9,4.5
		c-0.1,0.3-0.2,0.7-0.2,1.1v0.1c-0.8,0.8-1.1,2.1,0.1,3.2c0.8,0.7,1.8,1.1,2.9,1.2c0.4,0.7,1.2,1.2,2.1,1.4
		c3.6,0.5,8.6,0.6,11.4-2.2C61.7-480.4,61.4-482.1,60.2-482.9z"/>
	<path class="st13" d="M58.9-487.5c-1.7,0.4-4.1,1-6.5,0.9c-2.8-0.2-4.8-1.1-6.2-1.8c0.2-0.7,0.3-1.5,0.4-2.1
		c0.1-0.5,0.1-1.1,0.2-1.6c1.1-0.6,2.6-0.3,3.4,0.5c0.7,0.1,1.3,0.4,1.7,0.9h0.1c0.3-0.1,0.6-0.2,1-0.2c0.6-0.6,1.4-0.8,2.3-0.7
		c0.8-0.3,1.7-0.4,2.5-0.1c0-0.2,0-0.5,0-0.7c0-0.4,0.5-0.5,0.8-0.3c0.1,1.6,0.2,3.2,0.5,4.8C58.8-487.7,58.9-487.6,58.9-487.5z"/>
	<path class="st11" d="M60.9-495.9c0.6-1.7,1.1-3.6,1.4-5c0.1-0.5,0.1-1,0.2-1.5c0.1-2.4-0.2-4.7,0.6-7c0-1.3,0-2.6-0.1-3.9
		c-0.1-2.6-1-4.1-2.4-5c-1.5-0.9-3.5-1-5.6-0.7c-3,0.4-6.3-0.8-9.2,0.5c-3,1.4-3.9,4.4-3.8,7.5c0.1,1.5,0.2,3.1,0.5,4.6
		c0.3,1.6-0.1,3.3,0.1,4.9c0.1,1.3,2.3,8.4,3.7,10.3c1.9,2.5,5.1,2.6,8,2.6c2.6-0.1,4.4-2.1,5.5-4.3
		C60.1-493.8,60.6-494.8,60.9-495.9z"/>
	<path class="st11" d="M43.8-501.8c0.1-0.1,0.1-0.2,0.1-0.3c0-0.1,0-0.2,0-0.3c0.1-0.2,0.2-0.3,0.1-0.6c-0.1-0.1-0.1-0.2-0.1-0.3
		c-0.1-0.8-0.3-1.6-0.7-2.4c0.4,0,0.8-0.4,0.5-0.8c-0.5-0.7-1.3-2-2.4-1.5c-1,0.5-0.8,2-0.7,2.9c0.2,1.7,0.7,4.6,3,4.3
		C44.3-500.8,44.2-501.6,43.8-501.8z"/>
	<path class="st11" d="M63.4-507.4c-0.2-0.2-0.4-0.3-0.6-0.3c-0.7-0.1-1.1,0.8-1.4,1.5c-0.1,0.5,0.1,0.7,0.3,0.8
		c-0.3,1-0.4,2.1-0.6,2.5c-0.1,0.4,0.1,0.7,0.3,0.8c0,0.1,0.1,0.1,0.1,0.1c-0.1,0.2-0.3,0.5-0.4,0.7c-0.4,0.6,0.3,1.4,0.8,0.9
		c0.8-1,1.6-2.4,1.9-3.9c0-0.1,0.1-0.2,0.1-0.2C64.3-505.4,64.3-507,63.4-507.4z"/>
	<path class="st12" d="M39.2-513.3c0.2,0.5,0.7,0.5,1,0.3c0.2,0.1,0.3,0.1,0.5,0c-0.1,0.9-0.1,1.8-0.1,2.6c0,0.1,0.1,0.2,0.1,0.3
		c0.1,0.6,1,0.8,1.1,0.2c0.3-1.6,0.8-3.3,2-4.5c2-2,4.7-3,6.9-4.8c1.1,1.2,2.3,2.4,3.7,3.1c0.6,0.3,1.1,0.5,1.7,0.6
		c0.3,0.1,0.6,0.3,0.8,0.4c1.9,0.9,4.8,1.2,5.6,3.6c0.3,1.1,0.1,2.3-0.6,3.2c-0.2,0.2-1.7,2.3-0.1,1.6c2.2-0.8,2.8-3.5,2.8-6
		c4.2-1.1,4-6.3,1.9-9.3c-0.7-1-1.5-1.6-2.5-2.1c-0.7-1-1.5-1.7-2.5-2.2c-2.5-1.2-5.5-1-8.2-0.3c-0.3,0.1-0.7,0.2-1,0.3
		c-2-0.2-3.9-0.8-6-0.5c-1.9,0.3-3.7,1.1-5,2.5c-1.2,1.2-1.9,2.8-2.2,4.4C38.5-517.8,38.5-515.4,39.2-513.3z M54.1-525.6
		c2.1-0.5,4.3-0.5,6.4,0.1c0.4,0.1,0.8,0.3,1.2,0.6c-0.5-0.1-1-0.2-1.5-0.2c-1.6-0.2-3.2-0.5-4.8-0.5
		C54.9-525.7,54.5-525.7,54.1-525.6z"/>
	<path class="st11" d="M37.5-477.4c-0.4-1.8-1.1-3.7-3.2-4c-7-1.3-9,11.2-10.4,15.5c-1.2,3.7-2.4,7.6-2.7,11.5
		c-0.1,1.6-0.1,3.3-0.2,5c-0.5,6.3-2.9,12.5-3.3,19c-0.3,5.5-0.1,11,0.8,16.5c0.4,2.4,0.5,4.1,0.2,6.4c-0.3,2.1-0.3,4.4,1.5,5.9
		c0.1,0.1,0.2,0.2,0.3,0.2c0.5-0.1,1-0.1,1.4-0.2c1.7-0.5,3.1-1.4,4.1-2.8c-2.4-8.7,2.1-17.2,2.8-25.9c0.3-3.6,0.3-7.3,0.6-10.9
		v-0.1c0-0.1,0-0.1,0-0.2c0-0.7,0.1-1.3,0.2-1.9l0.1-0.1c1.4-2.4,2.9-11.9,3.9-14.4c0.7-1.8,1.4-3.9,1.2-5.9
		c0.3-0.8,0.6-1.2,0.8-1.5c0.1,0.1,0.2,0.1,0.2,0.1c1.3,0.4,2.5-0.4,2.9-1.6C40.1-470.2,38.3-474,37.5-477.4z"/>
	<path class="st4" d="M78.8-473.2c-0.2-0.6-0.6-1.3-1-2c-1.9-3.1-4.5-5.9-7.7-7.5c-0.9-0.5-9.9-3-10.3-1.9c-0.4,1.1-1,2.1-1.8,2.9
		c-1.4,1.5-3.5,2.4-5.6,2.3c-3.7-0.1-6.5-2.4-8.3-5.4c-0.7-1.2-10.4,1.6-11.7,2.1c-5.8,2.6-9.5,9.2-11.2,15.2
		c-0.3,1.2,11.3,11.6,11.8,11.7c0,0.1-0.1,0.1-0.1,0.1c0.3,5.5,1.9,15.3,1.5,20.8c-0.3,4.3-1,8.5-1.3,12.7c-0.3,3.9,5.9,2.1,1.6,3
		c-2.5,0.5,0.4,0.2,0.6,0.2c8.3,3.3,17.2,4.7,26.1,3.9c3.3-0.3,6.7-1,9.2-3.2c0.2-0.1,0.3-0.3,0.5-0.4c1.7-1.6,1-0.8,0.9-2.5
		c0-2.3,0.3-7.2-0.1-9.7c-1-6.4-1-12.8-1.4-19.3c-0.1-2.5-0.2-5-0.3-7.6c1.1-2.4,3.6-4.1,5.4-5.9C78.7-466.5,80.1-469.7,78.8-473.2z
		"/>
	<path class="st11" d="M27.4-396.6c0.2-0.5-0.1-1-0.5-1.3c0.6-1.4,0.9-2.8,0.3-4.2c0.1-0.2,0.2-0.3,0.2-0.6c0-1.6-0.3-3.1-1.1-4.4
		c-0.3-0.5-0.7-1-1.3-1.2c-0.7-0.3-1.4-0.1-2-0.3c-0.2-0.1-0.5-0.1-0.6,0c-0.9-0.8-2.5-1-3.3,0.5c-1.1,2-1.1,4.7-0.9,6.9
		c0.1,1.4,0.6,2.5,1.3,3.6c0.5,1.1,1.2,2,2.3,2.5c0.1,0.1,0.2,0.1,0.2,0.2c1.4,1.5,4.1,0.8,5.8,0.5
		C29.4-394.9,28.8-396.9,27.4-396.6z M24.3-398.8c-0.3-0.3-0.6-0.6-0.9-0.9c0-0.1,0-0.1,0-0.1c0.1,0.2-0.1-0.6-0.1-0.8v-0.1
		c0.2,0.1,0.4,0.1,0.7,0c0.1-0.1,0.1-0.1,0.1-0.1s0,0.1,0.1,0.2c0.2,0.3,0.3,0.6,0.4,1c0.1,0.4,0.2,0.8,0.3,1.3
		C24.7-398.6,24.6-398.7,24.3-398.8z"/>
	<path class="st14" d="M67.3-327.4c-0.7-0.3-1.5-0.4-2.1-0.3c-1.1,0-2.8,0.1-3.7,0.7c-1.4,1-0.7,2.5-0.5,3.9
		c0.1,0.6,0.1,1.3,0.4,1.9c0.3,0.7,0.9,1.4,1.6,1.2c0.7-0.1,2.1-0.6,2.5-0.2c1.6,1.2,2.6-0.8,3-2.3c0.2-0.8,0.6-1.9,0.6-2.6
		C69.1-326.4,68.2-327,67.3-327.4z"/>
	<path class="st15" d="M68.9-311.6c-0.1-0.2-0.1-0.5-0.2-0.7c-0.7-1.9-1.2-3.8-2.1-5.6c-0.5-1-1.2-1.5-2-1.5
		c-0.1-0.2-0.2-0.4-0.3-0.6c-0.1,0.1-0.2,0.1-0.3,0.1c-0.6,0.2-1.1,0.2-1.7,0.1c-0.1,0-0.1,0-0.1,0c-0.8,2.6-1.3,5.3-1.7,8
		c-0.3,2.4-1.1,5.2-0.7,7.6c0.7,3.7,3.7,7.8,6.6,7.7c2.8-0.2,4.5-2.4,4.8-6.2c0-0.2,0-0.3,0.1-0.5C71.3-306,71.1-311.1,68.9-311.6z"
		/>
	<path class="st16" d="M69.6-320.9c0-0.8-0.3-1.8-0.7-2.4c-0.7-1-1,0.1-1.1,1c-0.2,1.1-0.5,2-1.1,2.6c-1.1,1.1-2.8,1-3.8-0.3
		c-0.3-0.3-0.5-0.8-0.6-1.2c-0.1-0.3-0.3-1.3-0.5-1.5c-0.6-0.3-1.1,1.7-1,2.3c0,0.2,0.1,0.4,0.1,0.6c0.2,2.8,0.1,5.7-0.3,8.5
		c-0.1,0.3-0.1,0.5-0.1,0.8c0,0.2,0,0.3,0,0.5c-0.2,3.4,0.8,7,3.1,8.6c2.3,1.6,6.2,1.1,7.2-2.6C71.9-308.4,69.6-316.5,69.6-320.9z"
		/>
	<path class="st15" d="M65.6-308.9c0,0-6.1-15.6-0.8-15.6C70.2-324.5,67.4-309.2,65.6-308.9z"/>
	<path class="st1" d="M67.9-318.7c0.1-0.1,0.1-0.2,0-0.3c-0.5-0.7-1.2-1-1.9-1.2c-0.2-0.1-0.4-0.1-0.6-0.2c0.7-0.3,1.5-0.5,2.3-0.7
		c0.1-0.1,0.2-0.3,0-0.4c-1.6-0.3-3.3-0.2-4.8,0.5c-0.1,0.1-0.2,0.3,0,0.4c0.2,0.1,0.8,0.2,1.6,0.4c-0.6,0.3-1.2,0.8-1.5,1.5
		c-0.1,0.1,0,0.2,0.1,0.3c0.9,0.3,1.8,0.6,2.6,1.1c-0.1,0-0.1,0.1-0.1,0.1c-0.7,0.3-1.3,0.7-1.9,1.2c-0.1,0.1-0.1,0.2-0.1,0.3
		c0.5,0.8,1.2,1,2,1.5c-0.5,0.4-1,0.7-1.4,1.1c-0.1,0.1-0.1,0.3,0,0.3c0.6,0.5,1.2,0.8,1.8,1.3c-0.3,0.3-0.7,0.7-1,1.1
		c-0.1,0.2,0,0.3,0.1,0.3c0.6-0.1,1.2-0.1,1.7-0.3c0.1-0.1,0.1-0.2,0.1-0.2c0-0.1,0-0.1,0-0.2c-0.2-0.3-0.3-0.5-0.5-0.7
		c0.3-0.4,0.7-0.8,0.9-1.4c0.1-0.1,0-0.2,0-0.2c-0.3-0.4-0.7-0.8-1.1-1.2c0.6-0.5,1.1-0.9,1.6-1.4c0.1-0.1,0.1-0.2,0.1-0.3
		c-0.5-0.5-0.9-0.9-1.4-1.2C66.9-317.7,67.5-318.1,67.9-318.7z M66.6-321.3c-0.3,0.1-0.5,0.1-0.8,0.2c-0.3,0.2-0.6,0.3-1,0.5
		c-0.5-0.1-0.9-0.3-1.4-0.3C64.5-321.3,65.6-321.4,66.6-321.3z M66.6-311c-0.4,0.1-0.7,0.1-1.1,0.2c0.2-0.2,0.5-0.5,0.7-0.7
		C66.3-311.3,66.5-311.1,66.6-311z M66.2-314c0.2,0.2,0.8,0.6,0.8,0.9c0.1,0.4-0.6,0.9-0.7,1.1c0,0,0,0-0.1,0
		c-0.5-0.5-1.1-0.8-1.7-1.2c0.5-0.3,0.9-0.7,1.4-1.1C66-314.2,66-314.1,66.2-314z M65.6-314.9c-0.6-0.3-1.2-0.5-1.7-1.1
		c0.7-0.5,1.4-0.8,2.1-1.2c0.5,0.3,1,0.7,1.4,1.2c-0.5,0.5-1.1,0.9-1.6,1.4C65.8-314.8,65.7-314.9,65.6-314.9z M67.5-318.7
		c-0.1,0.3-0.8,0.7-1,0.8c-0.2,0.1-0.3,0.2-0.5,0.3c-0.9-0.5-1.9-0.8-2.8-1.2c0.4-0.7,1.1-1.1,1.6-1.4
		C66.2-319.9,67.6-319.3,67.5-318.7z"/>
	<path class="st14" d="M41.2-327.4c0.7-0.3,1.5-0.4,2.1-0.3c1.1,0,2.8,0.1,3.7,0.7c1.4,1,0.7,2.5,0.5,3.9c-0.1,0.6-0.1,1.3-0.4,1.9
		c-0.3,0.7-0.9,1.4-1.6,1.2c-0.7-0.1-2.1-0.6-2.5-0.2c-1.6,1.2-2.6-0.8-3-2.3c-0.2-0.8-0.6-1.9-0.6-2.6
		C39.5-326.4,40.4-327,41.2-327.4z"/>
	<path class="st15" d="M39.9-311.6c0.1-0.2,0.1-0.5,0.2-0.7c0.7-1.9,1.2-3.8,2.1-5.6c0.5-1,1.2-1.5,2-1.5c0.1-0.2,0.2-0.4,0.3-0.6
		c0.1,0.1,0.2,0.1,0.3,0.1c0.6,0.2,1.1,0.2,1.7,0.1c0.1,0,0.1,0,0.1,0c0.8,2.6,1.3,5.3,1.7,8c0.3,2.4,1.1,5.2,0.7,7.6
		c-0.7,3.7-3.7,7.8-6.6,7.7c-2.8-0.2-4.5-2.4-4.8-6.2c0-0.2,0-0.3-0.1-0.5C37.5-306,37.8-311.1,39.9-311.6z"/>
	<path class="st16" d="M39.2-320.9c0-0.8,0.3-1.8,0.7-2.4c0.7-1,1,0.1,1.1,1c0.2,1.1,0.5,2,1.1,2.6c1.1,1.1,2.8,1,3.8-0.3
		c0.3-0.3,0.5-0.8,0.6-1.2c0.1-0.3,0.3-1.3,0.5-1.5c0.6-0.3,1.1,1.7,1,2.3c0,0.2-0.1,0.4-0.1,0.6c-0.2,2.8-0.1,5.7,0.3,8.5
		c0.1,0.3,0.1,0.5,0.1,0.8c0,0.2,0,0.3,0,0.5c0.2,3.4-0.8,7-3.1,8.6c-2.3,1.6-6.2,1.1-7.2-2.6C36.9-308.4,39.2-316.5,39.2-320.9z"/>
	<path class="st15" d="M43.2-308.9c0,0,6.1-15.6,0.8-15.6C38.6-324.5,41.4-309.2,43.2-308.9z"/>
	<path class="st1" d="M42.4-317.4c-0.5,0.3-1,0.7-1.4,1.2c-0.1,0.1-0.1,0.2,0.1,0.3c0.5,0.5,1.1,1,1.6,1.4c-0.4,0.3-0.8,0.8-1.1,1.2
		c-0.1,0.1-0.1,0.2,0,0.2c0.2,0.6,0.6,1,0.9,1.4c-0.2,0.2-0.3,0.5-0.5,0.7c-0.1,0.1-0.1,0.1,0,0.2c0,0.1,0,0.2,0.1,0.2
		c0.6,0.2,1.2,0.2,1.7,0.3c0.1,0,0.3-0.2,0.1-0.3c-0.3-0.4-0.7-0.7-1-1.1c0.6-0.5,1.2-0.8,1.8-1.3c0.1-0.1,0.1-0.3,0-0.3
		c-0.5-0.4-1-0.7-1.4-1.1c0.7-0.4,1.5-0.7,2-1.5c0.1-0.1,0.1-0.2-0.1-0.3c-0.6-0.5-1.3-0.8-1.9-1.2c-0.1,0-0.1-0.1-0.1-0.1
		c0.8-0.5,1.8-0.7,2.6-1.1c0.1-0.1,0.1-0.2,0.1-0.3c-0.3-0.8-1-1.2-1.5-1.5c0.8-0.2,1.5-0.3,1.6-0.4c0.2,0,0.1-0.3,0-0.4
		c-1.6-0.6-3.2-0.8-4.8-0.5c-0.2,0-0.1,0.3,0,0.4c0.7,0.3,1.5,0.4,2.3,0.7c-0.2,0.1-0.4,0.1-0.6,0.2c-0.7,0.3-1.4,0.6-1.9,1.2
		c-0.1,0.1-0.1,0.2,0,0.3C41.4-318.1,41.9-317.7,42.4-317.4z M45.3-321c-0.5,0.1-0.9,0.2-1.4,0.3c-0.3-0.2-0.6-0.3-1-0.5
		c-0.2-0.1-0.5-0.2-0.8-0.2C43.3-321.4,44.3-321.3,45.3-321z M42.7-311.5c0.2,0.2,0.5,0.5,0.7,0.7c-0.4-0.1-0.7-0.1-1.1-0.2
		C42.3-311.1,42.5-311.3,42.7-311.5z M43-314.2c0.5,0.3,0.9,0.7,1.4,1.1c-0.6,0.4-1.2,0.7-1.7,1.2c0,0,0,0-0.1,0
		c-0.2-0.2-0.8-0.7-0.7-1.1c0-0.3,0.6-0.7,0.8-0.9C42.8-314.1,42.9-314.2,43-314.2z M42.9-314.7c-0.6-0.5-1.1-0.9-1.6-1.4
		c0.5-0.5,0.9-0.9,1.4-1.2c0.7,0.4,1.5,0.8,2.1,1.2c-0.5,0.6-1.1,0.7-1.7,1.1C43.2-314.9,43-314.8,42.9-314.7z M43.9-320.2
		c0.6,0.3,1.3,0.7,1.6,1.4c-1,0.3-1.9,0.7-2.8,1.2c-0.2-0.1-0.3-0.2-0.5-0.3c-0.2-0.1-1-0.5-1-0.8C41.2-319.3,42.6-319.9,43.9-320.2
		z"/>
	<path class="st2" d="M33.1-433.3c0.4,4.4,0.3,8.9,0.2,13.4c-0.1,2.5-0.1,5-0.1,7.4c0,5.1-0.3,10.2-0.4,15.3
		c-0.2,10.8-0.5,21.8-0.5,32.5c-0.1,14.1-0.1,28,0.4,42c0,0.1,0,0.1,0,0.1c0.1,2.5,1.6,3.7,2.8,3.2c0.3,0.4,0.7,0.7,1.2,0.9
		c0.7,0.3-0.1-3,0.6-2.8c3.6,1.1,7.4,1.1,11.1,0.8c0.8-0.1,2.1,2,2.4,1.5c1.2-2.6,1.2-4.8,1.3-9.6c0.1-8.7-0.6-61.8-0.5-70
		c0.3,0.1,3,0.2,2.8,0.3c-0.6,0.1,1,66.2,1.2,70.4c-0.1,0.2-0.2,5.9,0,7.3c0.1,1.1,1.4,1.1,2.4,1.5c2,0.7,4.1-2.3,5.3-2.1
		c2.5,0.2,7.5,1.6,10.3-0.3c0.3-0.2,0.9,1.4,0.7-0.6c-0.2-2.8,0-31.7,0-36.2c-0.1-5.5-0.2-11.1-0.3-16.7c-0.2-6.8-0.3-13.5-0.6-20.3
		c-0.2-5,0.1-10.4,0.1-15.7c-0.1-2.5-0.1-5-0.4-7.4c-0.2-1.4-0.3-2.6-0.6-3.9c-0.1-0.2-0.1-0.5-0.2-0.7c0-0.1-0.1-0.1-0.1-0.1
		c-0.4-4.5-0.2-9-0.2-13.4c0-2.5,0.2-5,0.1-7.4c-0.1-2.2-1.1-3.4-2.4-5c-1.2-1.5-1.9-3.2-2.2-5.1c-0.4-2.1-0.8-4.8-2.3-6.5
		c-2.2-2.5-7.9-0.9-11-0.8c-4.1,0.1-8.3,0.1-12.4,0.2c-1,0-2,0.1-3,0.2c-3.4,0.4-3.7,3.3-3.5,6.1c0.1,3.2-0.9,5.2-2.6,7.7
		c-0.6,0.8-0.7,2.1-0.6,3.4c0.1,1.1,0.2,2.1,0.3,3C32.6-438.4,32.9-435.8,33.1-433.3z"/>
	<path class="st4" d="M41.6-323.3c-3.3-0.2-6.7-0.3-10-0.8c-0.1,3.1,0.2,6.4,0.6,9.3c5.1,0.2,10.1,0.3,15.2,0.5
		c1.1,0.1,2.4,0.3,3.5,0.1c1.5-0.3,1.3,0.1,1.6-2.4c0.3-2,0.5-4.2,0.5-6.4C49.2-323.1,45.4-323.1,41.6-323.3z"/>
	<path class="st4" d="M75.5-323.3c-0.7,0-1.4,0.1-2,0.1c-6.3,0.1-12.5,0.2-18.8,0.2c0,1.8,0,3.6-0.1,5.5c-0.1,3.1-0.3,3.2,1.4,3.6
		c2.3,0.5,4.8,0.2,7.1,0.2c4,0.1,8,0.3,12.1,0.4c0.5,0,0.5-3.2,0.4-6.7C75.6-321.2,75.6-322.3,75.5-323.3z"/>
	<path class="st5" d="M48-417.9l3.6,13.2v-13.2H48z"/>
	<path class="st2" d="M60.7-462.7c0.6-5.2,0.3-10.4,1-15.7c0.1-0.5,0.2-6.8,1.2-6.6c2,0.4,4,0.9,6,1.4c1.6,0.3,0.3,4.1,0.1,4.9
		c-1,5.5-0.7,11.2-1.4,16.8c-0.3,2.2-0.4,6-4.8,5.1c-2.6-0.6-2.6-2.6-2.4-4.4C60.6-461.8,60.6-462.3,60.7-462.7z"/>
	<path class="st2" d="M36.5-484.4c0.9-0.2,1.8-0.3,2.6-0.5c0.1,0,0.1,0,0.2,0c0.7,0.1,1.4,0.2,2,0.1c0.5,0.5,0.7,1.1,0.8,1.7
		c0.8,8.1,2,16.2,2.1,24.3c0,1.5-1.6,2.9-3.5,2.8c-1.9-0.1-3.5-1.2-3.5-2.8c-0.1-8.1-1.2-16.2-2.1-24.3c-0.1-0.3,0.1-0.7,0.2-1
		C35.6-484.3,36.1-484.3,36.5-484.4z"/>
	<path class="st4" d="M62.3-460.6c0.1-0.2,0.2-0.3,0.4-0.5c0.2-0.3,0.5-0.5,0.8-0.6c0.3-0.1,0.8-0.1,1.1,0.2
		c0.1,0.1,0.2,0.2,0.3,0.2c0.2,0.2,0.3,0.4,0.4,0.6c0.1,0.1,0.1,0.3,0.1,0.5c0,0.1,0,0.3-0.1,0.5c-0.1,0.3-0.2,0.5-0.4,0.7
		c-0.2,0.3-0.6,0.4-0.9,0.5c-0.3,0.1-0.8,0.1-1.1-0.2c-0.3-0.2-0.6-0.5-0.7-0.8C62-459.9,62-460.2,62.3-460.6z"/>
	<path class="st4" d="M40.7-460.6c1.9,0,1.9,2.9,0,2.9S38.8-460.6,40.7-460.6z"/>
	<path class="st5" d="M73.3-411.2c0.1,0,0.1,0,0.2,0c-0.1-2.5-0.1-5-0.4-7.4c-0.6-0.7-1.4-1.4-2.4-1.8c-1.5-0.6-2.9,0.1-3,1.7
		C67.1-415.2,70-411.7,73.3-411.2z"/>
	<path class="st5" d="M33.2-412.6c2.1-0.2,3.9-2.2,5.2-3.8c0.7-0.8,0.1-2.3-0.7-2.8c-0.2-0.1-0.5-0.2-0.7-0.2
		c-0.1-0.1-0.3-0.2-0.5-0.2c-1-0.3-2.1-0.5-3.2-0.4C33.3-417.5,33.2-415,33.2-412.6z"/>
	<path class="st4" d="M32.6-419c0.1-0.2,0.1-0.3,0.2-0.6c0.1-0.2,0.1-0.3,0.1-0.6c0-0.2,0.1-0.4,0.1-0.6c0-0.1,0-0.3,0-0.4
		c0-0.1,0-0.1,0-0.1c0-0.1,0-0.3-0.1-0.4c0-0.1-0.1-0.3-0.1-0.4v-0.1c-0.1-0.1-0.1-0.3-0.1-0.4c0-0.1,0.1-0.1,0.1-0.1
		c0.6-1,1.9-1.1,2.9-1c2,0.3,3.9,0.7,5.9,0.8s4.1,0.2,6.1,0.2c4.2,0.1,8.2,0,12.4-0.3c2.1-0.2,9.7-0.2,11.2-0.9c1-0.5,1.6-0.2,2,0.4
		c-0.2,0.5-0.2,1.1-0.3,1.6c-0.1,1,0.2,2,0.7,2.9c-0.2,0.6-0.7,1.1-1.4,1.1c-5.3-0.1-10.7,1-16,1.2c-7.5,0.3-15.7,0.7-23-1.4
		c-0.3-0.1-0.6-0.3-0.8-0.6C32.5-418.7,32.6-418.8,32.6-419z"/>
	<path class="st11" d="M115.1-447.2c1.1-0.7,2.3-1.2,3.7-1.5c1.4-0.2,2.6-0.1,4-0.2c0.8-0.1,1.5,0.5,1.8,1.1c0.7,0.1,1.4,0.3,2,0.8
		c0.9,0.6,1.2,1.8,0.7,2.6c0.1,0.1,0.2,0.3,0.3,0.4c0.4,0.7,0.3,1.6-0.1,2.3c0.7,1.2-0.4,2.9-1.8,2.9c-4.1,0.2-9.1,0-10.9-4.3
		c-0.1-0.3-0.1-0.7,0-1.1C113.9-445,113.9-446.4,115.1-447.2z"/>
	<path class="st5" d="M60.4-454l-19.7,1C40.7-453,49.2-436.6,60.4-454z"/>
	<path class="st11" d="M121.9-441c0.2-0.6,0.6-1.2,0.9-1.7c-0.3-0.3-0.3-0.9,0-1.3c0.4-0.5,0.8-0.9,1.4-1.2c0.9-0.7,1.8,0.7,1.1,1.5
		c0.2,0.3,0.2,0.8-0.1,1.2c-0.3,0.3-0.5,0.6-0.7,0.8c0,0,0,0,0.1,0c0.7-0.2,1.3,0.5,1.2,1.1c0.2,0.3,0.2,0.6,0,1
		c-0.7,1.1-1.9,1.3-3.1,1.1c-0.7-0.1-0.8-1-0.5-1.5C121.9-440.3,121.8-440.7,121.9-441z"/>
	<path class="st2" d="M137.1-461.8l-2-1.5l-12.9,13.9l-2.6,17l12.2,0.5l1.2-15.7l-3.7-2.9L137.1-461.8z M126.4-437.3l-3-0.2
		l1.5-10.6l3.7,1.7L126.4-437.3z"/>
	<path class="st11" d="M118-446.2c1.4,0.1,2.8,0.6,4,1.1c0.9,0.4,2.4,1.2,2.6,2.3c0.2,1.4-2,1.7-2.9,1.7c-1.6-0.1-2.5-1.3-3.9-2.1
		c-0.5-0.3-0.6-0.8-0.3-1.3C116.8-445,117-446.2,118-446.2z"/>
	<path class="st11" d="M126.7-446.4c-1.6-1.9-3.5,0.2-3.3,1.9c-0.4,0.5-0.6,1.1-0.6,1.6c-0.3,0.2-0.5,0.6-0.6,1
		c-0.4,1.3,0.2,2.4,1.5,2.9c1.2,0.5,1.9-1,1.3-1.9c0.7-0.4,1.1-1.4,0.3-2c0,0,0.1,0,0.1,0c0.7-0.1,1-0.8,0.9-1.5
		C126.9-444.7,127.3-445.7,126.7-446.4z"/>
	<path class="st5" d="M133-447.5l-8.5-4.3l10.6-11.4l2,1.5l-7.8,11.3L133-447.5z"/>
	<path class="st4" d="M135.5-370.8c-6.5,0-11.8-5.3-11.8-11.8v-49.8h1.9v49.8c0,5.5,4.5,10,10,10c5.5,0,10-4.5,10-10v-81.6
		c0-6.6,5.4-12.1,12.1-12.1v1.9c-5.6,0-10.3,4.6-10.3,10.3v81.7C147.3-376.1,142-370.8,135.5-370.8z"/>
	<path class="st5" d="M238.8-485.9v158.4H157v-158.4c0-7.4,4.3-13.8,10.5-16.7c2.4-1.2,5.1-1.8,8-1.8h44.7c3,0,5.8,0.7,8.3,2
		C234.6-499.5,238.8-493.2,238.8-485.9z"/>
	<path class="st4" d="M238.8-493.5v47.7H157v-47.7c0-5.9,4.7-10.8,10.5-11c0.1,0,0.3,0,0.4,0h60c0.2,0,0.5,0,0.7,0
		C234.3-504.1,238.8-499.3,238.8-493.5z"/>
	<path class="st4" d="M249.4-309.2H146.3v-21.1c0-0.6,0.5-1.1,1.1-1.1h100.9c0.6,0,1.1,0.5,1.1,1.1V-309.2z"/>
	<path class="st17" d="M228.5-491.4h-61v18.2h61V-491.4z"/>
	<path class="st18" d="M187-491.4l41.6,18.2v-18.2H187z"/>
	<path class="st18" d="M180.8-491.4l32.3,18.2h-8.3l-27.7-18.2H180.8z"/>
	<path class="st2" d="M238.8-493.5v162.1h-10.3v-173C234.3-504.1,238.8-499.3,238.8-493.5z"/>
	<path class="st2" d="M167.5-504.4v173H157v-162.1C157-499.4,161.7-504.3,167.5-504.4z"/>
	<path class="st2" d="M181.6-439.4h-9.2v33.5h9.2V-439.4z"/>
	<path class="st2" d="M178.6-467.3H173v5.6h5.6V-467.3z"/>
	<path class="st2" d="M189.6-467.3H184v5.6h5.6V-467.3z"/>
	<path class="st2" d="M200.6-467.3H195v5.6h5.6V-467.3z"/>
	<path class="st2" d="M211.6-467.3H206v5.6h5.6V-467.3z"/>
	<path class="st2" d="M222.6-467.3H217v5.6h5.6V-467.3z"/>
	<path class="st5" d="M222.6-458.6H173v6.9h49.6V-458.6z"/>
	<path class="st2" d="M221.1-428.4v4.1h-27v-4.1H221.1z M222.6-429.9h-30.1v7.2h30.1V-429.9z"/>
	<path class="st2" d="M222.6-439.4h-30.1v7.2h30.1V-439.4z"/>
</g>
<path class="st2" d="M140-28.1c63.9,0,115.8-51.8,115.8-115.7S203.9-259.6,140-259.6c-63.9,0-115.8,51.8-115.8,115.8
	S76.1-28.1,140-28.1z"/>
<rect x="58" y="-205.8" class="st3" width="174.7" height="126.9"/>
<path class="st19" d="M221.4-200.1H58.6v112.4h162.7V-200.1z"/>
<path class="st5" d="M167.5-204.8l4.4,4.4l-9.4,9.4l9.4,9.4l-9.4,9.4l9.4,9.4l-9.4,9.4l9.4,9.4l-9.4,9.4l9.4,9.4l-9.4,9.4l9.4,9.4
	l-9.4,9.4l9.4,9.4l-5.8,5.8h63.6v-123.2H167.5z"/>
<path class="st20" d="M73.2-187.6h-2.1v87.6h2.1V-187.6z"/>
<path class="st21" d="M151.8-135H107l5.5,33.8h33.8L151.8-135z"/>
<path class="st20" d="M155.3-163.1c-0.1-2.7-1.2-5.5-3.6-6.8c-0.6-0.3-1.2-0.5-1.9-0.6c1.2,1.5,1.8,3.5,1.9,5.5
	c0.3,6.1-3.6,11.9-8.9,15.1c-2.5,1.5-5.3,2.5-8.2,3.1c-1.2,0.2-3.5,0.8-5.4,0.9c0,0.7,0.3,1.2,0.8,1.5c1.8,1,6.2-0.1,8.1-0.5
	c2.9-0.6,5.7-1.6,8.2-3.1C151.6-151.1,155.5-157,155.3-163.1z"/>
<path class="st22" d="M132.5-147.5c0.9-2.8,2-5.6,3.4-8.3c2.4-4.4,5.9-8.4,10.5-10.4c2.3-1,5-1.5,7.2-0.3c0.5,0.2,0.9,0.6,1.2,0.9
	c-0.5-1.8-1.5-3.4-3.1-4.2c-2.2-1.2-4.9-0.7-7.2,0.3c-4.6,2-8.1,6-10.5,10.4c-1.4,2.6-2.5,5.4-3.4,8.3c-0.5,1.5-2.5,5.4-0.5,6.5
	c0.3,0.2,0.8,0.3,1.2,0.4C131.6-145.3,132.3-146.8,132.5-147.5z"/>
<path class="st20" d="M103.7-163.1c0.1-2.7,1.2-5.5,3.6-6.8c0.6-0.3,1.2-0.5,1.9-0.6c-1.2,1.5-1.8,3.5-1.9,5.5
	c-0.3,6.1,3.6,11.9,8.9,15.1c2.5,1.5,5.3,2.5,8.2,3.1c1.2,0.2,3.5,0.8,5.4,0.9c0,0.7-0.3,1.2-0.8,1.5c-1.8,1-6.2-0.1-8.1-0.5
	c-2.9-0.6-5.7-1.6-8.2-3.1C107.3-151.1,103.4-157,103.7-163.1z"/>
<path class="st22" d="M126.4-147.5c-0.9-2.8-2-5.6-3.4-8.3c-2.4-4.4-5.9-8.4-10.5-10.4c-2.3-1-5-1.5-7.2-0.3
	c-0.5,0.2-0.9,0.6-1.2,0.9c0.5-1.8,1.5-3.4,3.1-4.2c2.2-1.2,4.9-0.7,7.2,0.3c4.6,2,8.1,6,10.5,10.4c1.4,2.6,2.5,5.4,3.4,8.3
	c0.5,1.5,2.5,5.4,0.5,6.5c-0.3,0.2-0.8,0.3-1.2,0.4C127.3-145.3,126.7-146.8,126.4-147.5z"/>
<path class="st21" d="M154.5-135h-50.1l-0.6-9.9h51.3L154.5-135z"/>
<path class="st22" d="M132.2-144.9h-5.5v43.8h5.5V-144.9z"/>
<path class="st19" d="M129.4-149.3L129.4-149.3c1.6,0,2.8,1.2,2.8,2.7v1.6h-5.5v-1.6C126.7-148.1,127.9-149.3,129.4-149.3z"/>
<path class="st23" d="M149.5-120.9l2.3-14.1H107l0.1,0.9L149.5-120.9z"/>
<path class="st22" d="M73.5-184.9c0.7,0,1.4-0.6,1.4-1.4c0-0.7-0.6-1.4-1.4-1.4c-0.7,0-1.4,0.6-1.4,1.4
	C72.2-185.5,72.8-184.9,73.5-184.9z"/>
<path class="st22" d="M118.7-184.9c1.7,0,3.1-1.4,3.1-3.1s-1.4-3.1-3.1-3.1c-1.7,0-3.1,1.4-3.1,3.1S117-184.9,118.7-184.9z"/>
<path class="st22" d="M104.5-173.2c0.2-1.1-0.6-2.2-1.7-2.4c-1.1-0.2-2.2,0.6-2.4,1.7c-0.2,1.1,0.6,2.2,1.7,2.4
	C103.2-171.3,104.3-172.1,104.5-173.2z"/>
<path class="st22" d="M73.5-119.3c0.7,0,1.4-0.6,1.4-1.4s-0.6-1.4-1.4-1.4c-0.7,0-1.4,0.6-1.4,1.4S72.8-119.3,73.5-119.3z"/>
<path class="st22" d="M146.8-109.5c0.5-0.5,0.5-1.2,0-1.7c-0.5-0.5-1.2-0.5-1.7,0c-0.5,0.5-0.5,1.2,0,1.7
	C145.6-109,146.4-109,146.8-109.5z"/>
<path class="st22" d="M150.9-162c2,0,3.7-1.7,3.7-3.7c0-2-1.7-3.7-3.7-3.7c-2,0-3.7,1.7-3.7,3.7C147.2-163.7,148.9-162,150.9-162z"
	/>
<path class="st22" d="M146-191.7c0-0.3-0.3-0.6-0.6-0.6s-0.6,0.3-0.6,0.6c0,0.3,0.3,0.6,0.6,0.6S146-191.4,146-191.7z"/>
<path class="st0" d="M140,242.9c61,0,110.5-49.5,110.5-110.5c0-61-49.5-110.5-110.5-110.5S29.5,71.4,29.5,132.4
	C29.5,193.4,79,242.9,140,242.9z"/>
<defs>
	<filter id="Adobe_OpacityMaskFilter" filterUnits="userSpaceOnUse" x="53.7" y="50.7" width="176.7" height="173">
		<feColorMatrix  type="matrix" values="1 0 0 0 0  0 1 0 0 0  0 0 1 0 0  0 0 0 1 0"/>
	</filter>
</defs>
<mask maskUnits="userSpaceOnUse" x="53.7" y="50.7" width="176.7" height="173" id="mask0_1_">
	<path class="st24" d="M140,242.3c61,0,110.5-49.5,110.5-110.5S201,21.3,140,21.3S29.5,70.8,29.5,131.8S79,242.3,140,242.3z"/>
</mask>
<g class="st25">
	<g class="st26">
		<rect x="53.7" y="50.7" class="st3" width="176.7" height="173"/>
	</g>
	<path class="st27" d="M154.6,123.6c0,0-9.2,18.5-18.6,31.2c-3.7,5.1-7.5,9.3-10.7,11c-3.1,1.7-5.8,4.3-8,7.3
		c-5.7,7.6-8.3,17.1-8.3,17.1l-24-36.3c0,0,0.8-35.5,3.7-41.4c4.2-8.6,6.2-26.1,7.8-29.6c1.2-2.6,4.6-15.9,4.9-16.9
		c0.1-0.4,1.3-1.1,2.8-1.1c1.2,0,3.2,1.1,3.7,3.5c2.6,11.9-0.5,19.7-0.5,20.1c0.9,9.1-1.8,15.9,0.1,17.7c0.1,0.1,0.2,0,0.4-0.1
		c3.3-2.1,23.8-32.1,26.4-32.7C137,72.8,154.6,123.6,154.6,123.6z"/>
	<path class="st28" d="M116.2,183c0,0-0.3,16.1-1.3,37.9H54.4c13.8-29.5,25.9-54.3,25.9-54.3S114.7,167.6,116.2,183z"/>
	<path class="st27" d="M175.6,61.1L168.1,72l-7.3,10.7c-0.4,0.5-1,0.7-1.5,0.7c-1.7-0.2-3.9-2.7-5.6-4.1l-0.2-0.1
		c-2.2-1.8-2.5-5.2-0.7-7.4L164,58.3l3.3-4c1.8-2.2,5.2-2.5,7.4-0.7l0.2,0.1C177.1,55.5,177.4,58.9,175.6,61.1z"/>
	<path class="st29" d="M168.2,72l-7.3,10.7c-0.4,0.5-1,0.7-1.5,0.7l4.7-25.1C164,58.4,164.8,69.7,168.2,72z"/>
	<path class="st29" d="M136,154.9c-3.7,5.1-7.5,9.3-10.7,11c-3.1,1.7-5.8,4.3-8,7.3c-2.5-1.2-5.4-2.6-8.2-3.9
		c-3.4-1.7-3.6-6.5-0.2-8.4c0,0,0.1,0,0.1-0.1c3.1-1.8,6.4-8.2,6.4-8.2L136,154.9z"/>
	<path class="st30" d="M101.3,66.6l-1.9,7.8c0,0,1.7,0.7,2.8,0.2C103.2,74,104.1,67,101.3,66.6z"/>
	<path class="st2" d="M154.7,158.6h-36.8c-5.5,0-10-4.5-10-10V61.7c0-5.5,4.5-10,10-10h36.8c5.5,0,10,4.5,10,10v86.9
		C164.7,154.1,160.2,158.6,154.7,158.6z"/>
	<path class="st4" d="M161.9,59.9v89.8c0,3-2.5,5.5-5.5,5.5h-40.1c-3,0-5.5-2.5-5.5-5.5V59.9c0-3,2.5-5.5,5.5-5.5h40.1
		C159.4,54.4,161.9,56.9,161.9,59.9z"/>
	<path class="st4" d="M156.4,54.4l-39.6,100.8h-0.5c-3,0-5.5-2.5-5.5-5.5V59.9c0-3,2.5-5.5,5.5-5.5H156.4z"/>
	<path class="st5" d="M144.5,57.7h-16.4c-1.5,0-2.7-1.2-2.7-2.7c0-1.5,1.2-2.7,2.7-2.7h16.4c1.5,0,2.7,1.2,2.7,2.7
		C147.2,56.5,146,57.7,144.5,57.7z"/>
	<path class="st27" d="M171.9,102.2l-1.1,0.4l-7.5,2.8c-0.2,0.1-0.3,0.1-0.5,0.2c-2.5,0.6-5.1-0.7-6-3.1l-0.1-0.3
		c-1-2.6,0.3-5.5,2.9-6.6l7-2.6l0.5-0.2l1.1-0.4c2.6-1,5.6,0.3,6.5,2.9l0.1,0.3C175.8,98.3,174.5,101.2,171.9,102.2z"/>
	<path class="st31" d="M165.8,102.4c-1.2,0.5-3.5,1.3-4.7,1.5c-0.3,0.1-1-0.1-1.6-0.8c-0.3-0.4-0.7-0.9-0.9-1.7
		c-0.1-0.4-0.2-0.7-0.3-1.1c-0.1-0.4,0-0.9,0-1.3c0.1-0.4,0.3-0.7,0.7-0.9c1.3-0.6,3-1.4,4.5-1.8c1-0.3,2.1,0.2,2.4,1.1l0.2,0.4
		l0.8,2.2C167.4,101,166.9,102,165.8,102.4z"/>
	<path class="st30" d="M165.8,102.4c-1.2,0.5-3.5,1.3-4.7,1.5c-0.3,0.1-1-0.1-1.6-0.8c-0.1-0.1-0.1-0.3-0.2-0.5
		c-0.1-0.4-0.2-0.7-0.3-1.1c-0.1-0.4,0-0.9,0-1.3c0.1-0.4,0.3-0.7,0.7-0.9c1.3-0.6,3-1.4,4.5-1.8c0.7-0.2,1.3-0.1,1.8,0.3l0.8,2.2
		C167.4,101,166.8,102,165.8,102.4z"/>
	<path class="st27" d="M168.5,112.7l-5.7,1.6c-1.7,0.5-3.6-0.6-4-2.3l-0.2-0.7c-0.5-1.7,0.6-3.6,2.3-4l5.7-1.6
		c1.7-0.5,3.6,0.6,4,2.3l0.2,0.7C171.3,110.4,170.2,112.2,168.5,112.7z"/>
	<path class="st31" d="M165.4,112.4c-1.1,0.3-3,0.8-4,0.8c-0.4,0-1.1-0.3-1.6-1.2c-0.1-0.2-0.2-0.5-0.3-0.8
		c-0.1-0.3-0.1-0.6-0.1-0.8c0-0.3,0-0.7,0.1-1c0.1-0.3,0.3-0.5,0.7-0.7c1.1-0.4,2.6-0.8,3.8-1.1c0.9-0.2,1.7,0.3,1.9,1l0.2,0.5
		l0.4,1.6C166.8,111.4,166.3,112.2,165.4,112.4z"/>
	<path class="st30" d="M165.4,112.4c-1.1,0.3-3,0.8-4,0.8c-0.4,0-1.1-0.3-1.6-1.2c-0.1-0.3-0.1-0.5-0.1-0.8c0-0.3,0-0.7,0.1-1
		c0.1-0.3,0.3-0.5,0.7-0.7c1.1-0.4,2.6-0.8,3.8-1.1c0.7-0.1,1.4,0.1,1.8,0.6l0.4,1.6C166.8,111.4,166.3,112.2,165.4,112.4z"/>
	<path class="st32" d="M74.4,178.8c0,0,11.8,11.3,19.8,15.7l6-4.3v6.3c0,0,11.9,2.1,15.6,0v-17.2l-33.3-16.7L74.4,178.8z"/>
	<path class="st33" d="M118.4,195.2c-4.6,0.9-14.5-2.7-14.5-2.7l1.6-15.4l-11.2,12.8c-5.7-2.1-14.6-7.6-19.9-11.1
		c-2.6-1.7-4.4-2.9-4.4-2.9c7.5-12,15-23.3,15-23.3c2.2,4.4,7.4,8.2,13.1,11.3c9.4,5.1,20,8.1,20,8.1
		C118.1,181.2,118.4,195.2,118.4,195.2z"/>
	<path class="st27" d="M171.7,91.2c0,0-0.1,0-0.1,0l-7.5,1.9c-3.3,0.8-6.7-0.9-7.6-4l-0.4-1.6c-0.8-2.9,1-6,4-7l2.5-0.6l5-1.3
		c3.3-0.8,6.7,0.9,7.6,4l0.4,1.6C176.4,87.2,174.7,90.2,171.7,91.2z"/>
	<path class="st31" d="M168.3,89.1l-3.7,1.6c0,0,0,0,0,0c-0.1,0-0.3,0.1-0.4,0.1c-0.1,0-0.1,0-0.2,0c0,0-0.1,0-0.1,0
		c-0.4,0-0.7-0.4-0.5-0.8c0.3-0.8,0.4-1.6,0.2-2.5l-0.1-0.3v0l-0.3-1c-0.2-0.8-0.7-1.5-1.3-2c-0.1-0.1-0.2-0.1-0.2-0.2
		c-0.7-0.5-0.5-1.6,0.3-1.9c0,0,0,0,0,0l4-0.6c1-0.3,2,0.5,2.2,1.5l0.3,1.2l0.7,2.5C169.5,87.7,169.2,88.9,168.3,89.1z"/>
	<path class="st30" d="M168.3,89.1l-3.7,1.6c0,0,0,0,0,0c-0.1,0-0.4,0.1-0.7,0.1c-0.4,0-0.7-0.4-0.5-0.8c0.3-0.8,0.4-1.6,0.2-2.5
		l-0.1-0.3v0l-0.3-1c-0.2-0.8-0.7-1.5-1.3-2c0.1-0.2,0.3-0.3,0.6-0.4c0,0,0,0,0,0l4-0.6c0.8-0.2,1.6,0.3,2,1l0.7,2.5
		C169.5,87.7,169.2,88.9,168.3,89.1z"/>
	<path class="st29" d="M107.9,130.4c0,0-1.6-14.4-3.2-17.1c-1.5-2.8-2.8-8.4-0.5-12.6c2.3-4.2,3.1-12.2,3.1-12.2
		c0.9,9.1-1.8,15.9,0.1,17.7c0.1,0.1,0.2,0,0.4-0.1L107.9,130.4z"/>
	<path class="st5" d="M88.7,107h54.7c2.6,0,4.8-2.1,4.8-4.8V81.8c0-2.6-2.1-4.8-4.8-4.8H88.7c-2.6,0-4.8,2.1-4.8,4.8v20.5
		C84,104.9,86.1,107,88.7,107z"/>
	<path class="st5" d="M144,73.2h-20.4c-2.2,0-4-1.8-4-4V67c0-2.2,1.8-4,4-4H144c2.2,0,4,1.8,4,4v2.2C148,71.4,146.2,73.2,144,73.2z"
		/>
	<path class="st5" d="M142.9,148.3h-23.4c-2.6,0-4.8-2.1-4.8-4.8v-3.1c0-2.6,2.1-4.8,4.8-4.8h23.4c2.6,0,4.8,2.1,4.8,4.8v3.1
		C147.6,146.1,145.5,148.3,142.9,148.3z"/>
	<path class="st5" d="M152.6,130.4h-21.5c-3.2,0-5.7-2.6-5.7-5.7V118c0-3.2,2.6-5.7,5.7-5.7h21.5c3.2,0,5.7,2.6,5.7,5.7v6.7
		C158.4,127.8,155.8,130.4,152.6,130.4z"/>
	<path class="st27" d="M222.8,220.9h-44.4c-2.1-1.4-13.2-9-17.8-14.6c-1-1.2-4.5-11.5-7.2-19.8c-1.7-5.2-3.1-9.7-3.3-10.7
		c-0.1-0.4-0.1-1.1-0.2-2v0c-0.1-3.4,0-10,0.2-15.2v0v-0.1c0-0.2,0-0.4,0-0.7v0c0,0,0-0.1,0-0.1c0-0.9,0.1-1.8,0.1-2.5
		c0.1-1.9,0.1-3.4,0.2-4l0-0.3c0.1,0,2.2-1.2,5.1,0.9c0.7,0.5,1.3,1.7,1.9,3.3c0.4,1,0.7,2.1,1,3.4c1.2,4.7,2.1,10.2,2.6,11.7
		c0.8,2.4,9.8,13,10.4,13.6c0,0,0,0,0,0v-16.7l-6.8-18.3l-2.8-7.5l-1.4-3.8c0,0-2.2-3.6-4-7.8c-0.8-1.9-1.5-3.9-2-5.8
		c-0.1-0.4-0.2-0.9-0.3-1.3c-0.3-1.6-0.3-3.1,0.1-4.3c0.7-2.2,2.2-2.6,3.3-2.5c0.1,0,0.2,0,0.3,0c0.1,0,0.2,0,0.3,0.1
		c0.2,0.1,0.4,0.1,0.6,0.2c0.3,0.2,0.6,0.4,0.7,0.7c0,0,1,1.3,2.3,3c0.9,1.1,1.9,2.4,2.8,3.7c1.7,2.2,3.3,4.3,3.7,5
		c2.4,3.3,8.7,14.1,8.7,14.1l7.4,0.3c1.2,0.1,2.3,0.5,3.2,1.3c2.6,2.5,8.3,7.8,9,8.6c0,0.3,4.4,2.4,7.8,4.3c2.4,1,7.1,4.7,7.1,4.7
		c1,0.8,1.7,1.7,2.1,2.5c1.6,3.5,5.9,33.6,8,48.5C222.4,217.4,222.8,220.6,222.8,220.9z"/>
	<path class="st29" d="M177.1,142.4c0,0,6.9,11.2,7.8,11.7c0.9,0.5,4.5,1.2,4.9,0C190.2,152.9,177.1,142.4,177.1,142.4z"/>
	<path class="st29" d="M211.7,161.6C211.7,161.6,211.7,161.6,211.7,161.6c0,0-4.7-3.7-7.1-4.7c-3.1-1.7-7.1-3.7-7.8-4.2
		c0.7,0.8,5.9,6.6,7.8,7.1C206.4,160.2,210.3,161.3,211.7,161.6z"/>
	<path class="st29" d="M171.5,183.9v-16.7c0,0,4,6.6,4.3,10.3C176.1,181.1,174.1,187,171.5,183.9z"/>
	<path class="st31" d="M157.1,122.5c-0.6-1-1.6-2.8-2-3.8c-0.1-0.3-0.1-0.9,0.3-1.5c0.2-0.4,0.5-0.7,1-1.1c0.2-0.2,0.5-0.3,0.7-0.4
		c0.3-0.1,0.6-0.2,0.9-0.2c0.3,0,0.6,0.2,0.8,0.5c0.7,1,1.6,2.4,2.2,3.6c0.4,0.9,0.3,1.8-0.3,2.3l-0.3,0.2l-1.4,1
		C158.5,123.6,157.6,123.3,157.1,122.5z"/>
	<path class="st30" d="M157.1,122.5c-0.6-1-1.6-2.8-2-3.8c-0.1-0.3-0.1-0.9,0.3-1.5c0.1-0.1,0.2-0.2,0.3-0.2
		c0.2-0.2,0.5-0.3,0.7-0.4c0.3-0.1,0.6-0.2,0.9-0.2c0.3,0,0.6,0.2,0.8,0.5c0.7,1,1.6,2.4,2.2,3.6c0.3,0.6,0.3,1.1,0.1,1.6l-1.4,1
		C158.5,123.6,157.6,123.3,157.1,122.5z"/>
	<path class="st1" d="M108.7,90.9c0,2.1-0.7,4.1-1.9,5.7c-0.4,0.5-0.9,1-1.4,1.4c-1.6,1.4-3.7,2.2-6,2.2c-2.1,0-4-0.7-5.6-1.8
		c-0.7-0.5-1.3-1.1-1.8-1.8C90.8,95,90,93,90,90.9c0-5.1,4.2-9.3,9.3-9.3C104.5,81.6,108.7,85.7,108.7,90.9z"/>
	<path class="st2" d="M103.1,95.3C103.1,95.3,103,95.2,103.1,95.3c-0.2-0.2-0.3-0.2-0.7-0.3c-0.2,0-0.5-0.1-1-0.1c0,0-0.1,0-0.1,0
		c0,0-0.1,0-0.1,0c-0.1-0.1-0.2-0.6-0.2-1.1c0,0,0-0.1,0-0.1c0-0.2,0-0.4,0-0.6c0,0,0,0,0,0c0.3,0,0.4,0,0.4,0
		c0.5,0,0.8-1.4,0.9-2.4c0,0,0.2-0.6,0.2-1.2c0-0.4-0.1-0.7-0.3-1c-0.1-0.2-0.2-0.2-0.3-0.3c0,0-0.1-0.1-0.1-0.1
		c-0.5-0.5-2.3-2.4-3.6-1.3c0-0.1-0.4-1.4-2.4-1c0.1,0,1-0.1,1.2,0.3c0,0-0.8-0.3-1.3-0.1c-0.2,0.1-0.4,0.4-0.4,0.7c0,0,0,0,0,0
		c0,0,0,0.1,0,0.1v0c-0.1,0.3-0.1,0.6,0,0.7c0.1,0.3,0.6,1.2,1,1.2c0.1,0,0.3,0,0.4-0.1c-0.1,0.2-0.1,0.3-0.1,0.5
		c-0.4,1.8,0.8,3.1,1.4,2.8c0.4-0.2,0.7,0.5,0.7,0.5c-0.1,1.3-0.4,2.1-0.7,2.4c-0.1,0-0.3,0-0.6,0.1c0,0-0.9,0.1-1.6,0.4
		c0,0,0,0,0,0c-0.2,0.1-0.3,0.1-0.4,0.2c-0.1,0-0.1,0.1-0.1,0.1c0,0,0,0,0,0.1c-0.2,0.4-0.5,1.1-0.7,1.9c1.3,1,2.9,1.6,4.7,1.6
		c1.9,0,3.7-0.7,5.1-1.9C104,96.1,103.4,95.5,103.1,95.3z"/>
	<path class="st1" d="M125.4,86.2h-10.3c-0.4,0-0.8-0.4-0.8-0.8c0-0.4,0.4-0.8,0.8-0.8h10.3c0.4,0,0.8,0.4,0.8,0.8
		C126.3,85.8,125.9,86.2,125.4,86.2z"/>
	<path class="st1" d="M125.7,92.1h-10.8c-0.3,0-0.5-0.2-0.5-0.5s0.2-0.5,0.5-0.5h10.8c0.3,0,0.5,0.2,0.5,0.5S126,92.1,125.7,92.1z"
		/>
	<path class="st1" d="M120.8,94.7h-5.9c-0.3,0-0.5-0.2-0.5-0.5s0.2-0.5,0.5-0.5h5.9c0.3,0,0.5,0.2,0.5,0.5
		C121.3,94.4,121.1,94.7,120.8,94.7z"/>
	<path class="st1" d="M133.5,94.7h-9.9c-0.3,0-0.5-0.2-0.5-0.5s0.2-0.5,0.5-0.5h9.9c0.3,0,0.5,0.2,0.5,0.5S133.8,94.7,133.5,94.7z"
		/>
	<path class="st1" d="M142.8,92.1h-14.2c-0.3,0-0.5-0.2-0.5-0.5s0.2-0.5,0.5-0.5h14.2c0.3,0,0.5,0.2,0.5,0.5S143.1,92.1,142.8,92.1z
		"/>
	<path class="st1" d="M125.7,97.2h-10.8c-0.3,0-0.5-0.2-0.5-0.5s0.2-0.5,0.5-0.5h10.8c0.3,0,0.5,0.2,0.5,0.5S126,97.2,125.7,97.2z"
		/>
	<path class="st1" d="M142.8,97.2h-14.2c-0.3,0-0.5-0.2-0.5-0.5s0.2-0.5,0.5-0.5h14.2c0.3,0,0.5,0.2,0.5,0.5S143.1,97.2,142.8,97.2z
		"/>
	<path class="st1" d="M135.7,86.2h-7.2c-0.4,0-0.8-0.3-0.8-0.8v-0.1c0-0.4,0.3-0.8,0.8-0.8h7.2c0.4,0,0.8,0.3,0.8,0.8v0.1
		C136.5,85.9,136.1,86.2,135.7,86.2z"/>
	<path class="st4" d="M126.2,139.2h-7.3c-0.3,0-0.6-0.3-0.6-0.6c0-0.3,0.3-0.6,0.6-0.6h7.3c0.3,0,0.6,0.3,0.6,0.6
		C126.8,139,126.6,139.2,126.2,139.2z"/>
	<path class="st4" d="M126.4,142.2h-7.7c-0.2,0-0.4-0.2-0.4-0.4c0-0.2,0.2-0.4,0.4-0.4h7.7c0.2,0,0.4,0.2,0.4,0.4
		C126.8,142.1,126.6,142.2,126.4,142.2z"/>
	<path class="st4" d="M122.9,144h-4.2c-0.2,0-0.4-0.2-0.4-0.4c0-0.2,0.2-0.4,0.4-0.4h4.2c0.2,0,0.4,0.2,0.4,0.4
		C123.3,143.9,123.1,144,122.9,144z"/>
	<path class="st4" d="M131.9,144h-7.1c-0.2,0-0.4-0.2-0.4-0.4c0-0.2,0.2-0.4,0.4-0.4h7.1c0.2,0,0.4,0.2,0.4,0.4
		C132.3,143.9,132.2,144,131.9,144z"/>
	<path class="st4" d="M138.6,142.2h-10.1c-0.2,0-0.4-0.2-0.4-0.4c0-0.2,0.2-0.4,0.4-0.4h10.1c0.2,0,0.4,0.2,0.4,0.4
		C138.9,142.1,138.8,142.2,138.6,142.2z"/>
	<path class="st4" d="M126.4,145.9h-7.7c-0.2,0-0.4-0.2-0.4-0.4c0-0.2,0.2-0.4,0.4-0.4h7.7c0.2,0,0.4,0.2,0.4,0.4
		C126.8,145.7,126.6,145.9,126.4,145.9z"/>
	<path class="st4" d="M138.6,145.9h-10.1c-0.2,0-0.4-0.2-0.4-0.4c0-0.2,0.2-0.4,0.4-0.4h10.1c0.2,0,0.4,0.2,0.4,0.4
		C138.9,145.7,138.8,145.9,138.6,145.9z"/>
	<path class="st4" d="M133.5,139.2h-5.1c-0.3,0-0.5-0.2-0.5-0.5v-0.1c0-0.3,0.2-0.5,0.5-0.5h5.1c0.3,0,0.5,0.2,0.5,0.5v0.1
		C134.1,139,133.8,139.2,133.5,139.2z"/>
	<path class="st4" d="M131.2,66.1h-7.3c-0.3,0-0.6-0.3-0.6-0.6c0-0.3,0.3-0.6,0.6-0.6h7.3c0.3,0,0.6,0.3,0.6,0.6
		C131.8,65.9,131.5,66.1,131.2,66.1z"/>
	<path class="st4" d="M131.4,69.1h-7.7c-0.2,0-0.4-0.2-0.4-0.4c0-0.2,0.2-0.4,0.4-0.4h7.7c0.2,0,0.4,0.2,0.4,0.4
		C131.8,69,131.6,69.1,131.4,69.1z"/>
	<path class="st4" d="M127.9,70.9h-4.2c-0.2,0-0.4-0.2-0.4-0.4c0-0.2,0.2-0.4,0.4-0.4h4.2c0.2,0,0.4,0.2,0.4,0.4
		C128.3,70.8,128.1,70.9,127.9,70.9z"/>
	<path class="st4" d="M136.9,70.9h-7.1c-0.2,0-0.4-0.2-0.4-0.4c0-0.2,0.2-0.4,0.4-0.4h7.1c0.2,0,0.4,0.2,0.4,0.4
		S137.1,70.9,136.9,70.9z"/>
	<path class="st4" d="M143.5,69.1h-10.1c-0.2,0-0.4-0.2-0.4-0.4c0-0.2,0.2-0.4,0.4-0.4h10.1c0.2,0,0.4,0.2,0.4,0.4
		C143.9,69,143.8,69.1,143.5,69.1z"/>
	<path class="st4" d="M138.5,66.1h-5.1c-0.3,0-0.5-0.2-0.5-0.5v-0.1c0-0.3,0.2-0.5,0.5-0.5h5.1c0.3,0,0.5,0.2,0.5,0.5v0.1
		C139.1,65.9,138.8,66.1,138.5,66.1z"/>
	<path class="st4" d="M137.8,116.9h-8c-0.4,0-0.6-0.3-0.6-0.6c0-0.4,0.3-0.6,0.6-0.6h8c0.4,0,0.6,0.3,0.6,0.6
		S138.2,116.9,137.8,116.9z"/>
	<path class="st4" d="M138.1,120.2h-8.4c-0.2,0-0.4-0.2-0.4-0.4c0-0.2,0.2-0.4,0.4-0.4h8.4c0.2,0,0.4,0.2,0.4,0.4
		C138.5,120,138.3,120.2,138.1,120.2z"/>
	<path class="st4" d="M134.2,122.2h-4.6c-0.2,0-0.4-0.2-0.4-0.4c0-0.2,0.2-0.4,0.4-0.4h4.6c0.2,0,0.4,0.2,0.4,0.4
		C134.7,122,134.5,122.2,134.2,122.2z"/>
	<path class="st4" d="M144.1,122.2h-7.7c-0.2,0-0.4-0.2-0.4-0.4c0-0.2,0.2-0.4,0.4-0.4h7.7c0.2,0,0.4,0.2,0.4,0.4
		C144.5,122,144.3,122.2,144.1,122.2z"/>
	<path class="st4" d="M151.4,120.2h-11c-0.2,0-0.4-0.2-0.4-0.4c0-0.2,0.2-0.4,0.4-0.4h11c0.2,0,0.4,0.2,0.4,0.4
		C151.8,120,151.6,120.2,151.4,120.2z"/>
	<path class="st4" d="M138.1,124.1h-8.4c-0.2,0-0.4-0.2-0.4-0.4c0-0.2,0.2-0.4,0.4-0.4h8.4c0.2,0,0.4,0.2,0.4,0.4
		C138.5,123.9,138.3,124.1,138.1,124.1z"/>
	<path class="st4" d="M151.4,124.1h-11c-0.2,0-0.4-0.2-0.4-0.4c0-0.2,0.2-0.4,0.4-0.4h11c0.2,0,0.4,0.2,0.4,0.4
		C151.8,123.9,151.6,124.1,151.4,124.1z"/>
	<path class="st4" d="M138.1,126.2h-8.4c-0.2,0-0.4-0.2-0.4-0.4c0-0.2,0.2-0.4,0.4-0.4h8.4c0.2,0,0.4,0.2,0.4,0.4
		C138.5,126,138.3,126.2,138.1,126.2z"/>
	<path class="st4" d="M151.4,126.2h-11c-0.2,0-0.4-0.2-0.4-0.4c0-0.2,0.2-0.4,0.4-0.4h11c0.2,0,0.4,0.2,0.4,0.4
		C151.8,126,151.6,126.2,151.4,126.2z"/>
	<path class="st4" d="M145.8,116.9h-5.6c-0.3,0-0.6-0.3-0.6-0.6v-0.1c0-0.3,0.3-0.6,0.6-0.6h5.6c0.3,0,0.6,0.3,0.6,0.6v0.1
		C146.4,116.6,146.2,116.9,145.8,116.9z"/>
	<path class="st2" d="M118.5,60l-0.6,0.4l-0.6-0.4c0.1-0.2,0.3-0.3,0.6-0.3C118.1,59.7,118.4,59.8,118.5,60z"/>
	<path class="st2" d="M117.9,58.7c-0.6,0-1.1,0.3-1.4,0.7l0.4,0.3c0.2-0.3,0.6-0.5,1-0.5c0.4,0,0.8,0.2,1,0.5l0.4-0.3
		C119,59,118.5,58.7,117.9,58.7z"/>
	<path class="st2" d="M117.9,56.8c-1.2,0-2.3,0.6-2.9,1.5l0.4,0.3c0.6-0.8,1.5-1.3,2.6-1.3c1.1,0,2,0.5,2.6,1.3l0.4-0.3
		C120.2,57.4,119.1,56.8,117.9,56.8z"/>
	<path class="st2" d="M117.9,57.8c-0.9,0-1.6,0.4-2.1,1.1l0.4,0.3c0.4-0.5,1-0.9,1.7-0.9c0.7,0,1.3,0.3,1.7,0.9l0.4-0.3
		C119.5,58.3,118.8,57.8,117.9,57.8z"/>
	<path class="st1" d="M114.7,120.6c0,0.8,0.3,1.6,0.8,2.2c0.2,0.2,0.3,0.4,0.5,0.6c0.2,0.2,0.4,0.3,0.6,0.4c0.5,0.3,1.1,0.4,1.7,0.4
		c0.8,0,1.5-0.2,2.1-0.7c0,0,0.1,0,0.1-0.1c0.3-0.2,0.5-0.4,0.7-0.7c0.5-0.6,0.8-1.4,0.8-2.2c0-2-1.6-3.7-3.7-3.7
		C116.3,116.9,114.7,118.6,114.7,120.6z"/>
	<path class="st2" d="M119.3,122.9l-0.3-0.3c0,0-0.1,0-0.1,0c-0.1,0-0.1-0.1-0.2-0.1c0-0.1,0-0.3,0.1-0.4c0.1-0.4,0.1-0.6,0.1-0.7
		c0.2,0,0.3,0,0.3,0c0.3-0.1,0.4-1.2,0.3-1.8c0.1,0,0.1,0,0.2,0c0.3-0.1,0.3-0.5,0.3-0.5s-0.1,0.1-0.2,0.2c0,0,0.4-0.6-0.1-1
		c-0.5-0.4-1-0.1-1.3-0.1c-0.6,0-1,0.1-1.2,0.5c-0.2,0.4-0.1,1.5,0.3,2c0,0,0,0.1,0,0.1c0,0.2,0.1,0.3,0.2,0.4
		c-0.1,0.5-0.3,0.8-0.5,1.1c-0.1,0.1-0.2,0.2-0.3,0.4h0c-0.2,0.3-0.3,0.6-0.5,1c0.2,0.1,0.4,0.3,0.7,0.4c0,0,0,0,0.1,0h0
		c0,0,0.1,0,0.1,0c0.1,0,0.1,0.1,0.2,0.1c0.1,0,0.1,0,0.2,0.1c0,0,0.1,0,0.1,0c0,0,0.1,0,0.1,0h0c0,0,0,0,0.1,0c0,0,0.1,0,0.1,0
		c0,0,0,0,0,0c0,0,0.1,0,0.1,0c0,0,0.1,0,0.1,0c0,0,0.1,0,0.1,0c0,0,0.1,0,0.1,0c0,0,0.1,0,0.1,0s0.1,0,0.1,0h0c0,0,0,0,0,0
		c0,0,0,0,0.1,0c0,0,0,0,0,0c0,0,0.1,0,0.1,0c0.5-0.1,1-0.2,1.4-0.4C119.9,123.5,119.6,123.2,119.3,122.9z"/>
	<path class="st1" d="M150.6,141.8c0,0.8,0.3,1.6,0.8,2.2c0.2,0.2,0.3,0.4,0.5,0.6c0.6,0.5,1.5,0.9,2.4,0.9c0.8,0,1.6-0.3,2.2-0.7
		c0.3-0.2,0.5-0.4,0.7-0.7c0.5-0.6,0.8-1.4,0.8-2.2c0-2-1.6-3.7-3.7-3.7C152.2,138.2,150.6,139.8,150.6,141.8z"/>
	<path class="st2" d="M156.1,143.9C156.1,143.9,156.1,143.9,156.1,143.9C156.1,143.9,156.1,143.9,156.1,143.9
		c-0.1-0.1-0.2-0.2-0.3-0.2c0,0,0,0,0,0c-0.3-0.1-0.7-0.2-0.7-0.2c-0.1,0-0.2,0-0.3,0c-0.1-0.1-0.3-0.5-0.3-1.1c0,0,0.1-0.3,0.3-0.2
		c0.3,0.2,0.8-0.5,0.7-1.3c0-0.1,0-0.2-0.1-0.2c0.1,0,0.1,0.1,0.2,0.1c0.2,0,0.4-0.4,0.4-0.6c0-0.1,0-0.6-0.2-0.7
		c-0.2-0.1-0.6,0-0.6,0c0.1-0.2,0.5-0.1,0.6-0.1c-0.9-0.2-1.1,0.4-1.1,0.4c-0.6-0.5-1.5,0.4-1.7,0.6c0,0,0,0,0,0
		c-0.1,0-0.1,0.1-0.2,0.1c-0.1,0.1-0.2,0.3-0.2,0.5c0,0.3,0.1,0.6,0.1,0.6c0.1,0.5,0.2,1.1,0.4,1.1c0,0,0.1,0,0.2,0v0
		c0,0.1,0,0.2,0,0.3v0.1c0,0.3,0,0.5-0.1,0.5c0,0,0,0-0.1,0c0,0-0.1,0-0.1,0c-0.2,0-0.3,0.1-0.4,0.1c-0.2,0-0.3,0.1-0.3,0.1
		c0,0,0,0,0,0c-0.1,0.1-0.4,0.4-0.7,0.9c0.6,0.5,1.5,0.9,2.4,0.9c0.8,0,1.6-0.3,2.2-0.7C156.4,144.4,156.3,144.1,156.1,143.9z"/>
	<path class="st1" d="M150.6,67.9c0,0.8,0.3,1.6,0.8,2.2c0.2,0.2,0.3,0.4,0.5,0.6c0.6,0.5,1.5,0.9,2.4,0.9c0.8,0,1.6-0.3,2.2-0.7
		c0.3-0.2,0.5-0.4,0.7-0.7c0.5-0.6,0.8-1.4,0.8-2.2c0-2-1.6-3.7-3.7-3.7C152.2,64.2,150.6,65.8,150.6,67.9z"/>
	<path class="st2" d="M156.2,70C156.2,69.9,156.1,69.9,156.2,70C156.1,69.9,156.1,69.9,156.2,70c-0.1-0.1-0.2-0.2-0.3-0.2
		c0,0,0,0,0,0c-0.3-0.1-0.7-0.2-0.7-0.2c-0.1,0-0.2,0-0.3,0c0,0-0.1-0.1-0.1-0.1c-0.1-0.2-0.2-0.5-0.2-1c0,0,0.1-0.3,0.3-0.2
		c0.3,0.2,0.8-0.5,0.7-1.3c0-0.1,0-0.2-0.1-0.2c0.1,0,0.1,0.1,0.2,0.1c0.2,0,0.4-0.4,0.4-0.6c0-0.1,0-0.6-0.2-0.7
		c-0.2-0.1-0.6,0-0.6,0c0.1-0.2,0.5-0.1,0.6-0.1c-0.9-0.2-1.1,0.4-1.1,0.4c-0.6-0.5-1.5,0.4-1.7,0.6c0,0,0,0,0,0
		c-0.1,0-0.1,0.1-0.2,0.1c-0.1,0.1-0.2,0.3-0.2,0.5c0,0.3,0.1,0.6,0.1,0.6c0.1,0.5,0.2,1.1,0.4,1.1c0,0,0.1,0,0.2,0v0
		c0,0.1,0,0.2,0,0.3v0.1c0,0.3,0,0.5-0.1,0.5c0,0,0,0-0.1,0c0,0-0.1,0-0.1,0c-0.2,0-0.3,0.1-0.4,0.1c-0.2,0-0.3,0.1-0.3,0.1
		c0,0,0,0,0,0c-0.1,0.1-0.4,0.4-0.7,0.9c0,0,0.1,0.1,0.1,0.1l0,0c0,0,0.1,0,0.1,0.1c0,0,0,0,0.1,0c0,0,0,0,0.1,0c0,0,0.1,0,0.1,0.1
		c0,0,0,0,0.1,0c0,0,0.1,0,0.1,0.1c0,0,0.1,0,0.1,0.1c0,0,0,0,0,0c0,0,0,0,0,0c0,0,0.1,0,0.1,0c0,0,0,0,0,0c0,0,0,0,0,0c0,0,0,0,0,0
		c0,0,0.1,0,0.1,0c0,0,0.1,0,0.1,0c0,0,0,0,0,0c0,0,0,0,0,0c0,0,0.1,0,0.1,0c0,0,0.1,0,0.1,0c0,0,0.1,0,0.1,0c0,0,0,0,0,0
		c0,0,0,0,0.1,0c0.1,0,0.2,0.1,0.3,0.1c0,0,0.1,0,0.1,0c0,0,0,0,0,0s0,0,0,0c0,0,0.1,0,0.1,0h0h0c0,0,0.1,0,0.1,0h0c0,0,0,0,0,0
		c0,0,0.1,0,0.1,0h0c0,0,0,0,0,0s0,0,0,0c0,0,0.1,0,0.1,0c0.8,0,1.6-0.3,2.2-0.7C156.4,70.5,156.3,70.2,156.2,70z"/>
	<path class="st29" d="M200.5,214l-13.3,6.9h-8.8c-2.1-1.4-13.2-9-17.8-14.6c-1-1.2-4.5-11.5-7.2-19.8c0.4,1.1,8,17.3,10.1,19.1
		c2.2,1.8,13.5,12.6,16.7,12.4C183.3,218,199.5,214.3,200.5,214C200.5,214,200.5,214,200.5,214z"/>
	<path class="st34" d="M227.2,220.9h-47.8c2.4-0.9,11.6-4.4,21.1-6.8c0,0,0,0,0.1,0c8.2-2.1,16.6-3.3,21.1-1.4l0,0.1L227.2,220.9z"
		/>
	<path class="st29" d="M150.2,157.8c0.8-0.3,1.9-0.5,2.5,0.4c0.9,1.4-2.3,14-2.7,15.6L150.2,157.8z"/>
	<path class="st30" d="M150.5,151l-0.3,7.6c0,0,1.6,0.3,2.5-0.4C153.6,157.5,153.1,150.9,150.5,151z"/>
	<path class="st35" d="M118.4,195.2c-4.6,0.9-14.5-2.7-14.5-2.7l1.6-15.4l-11.2,12.8c-5.7-2.1-14.6-7.6-19.9-11.1
		c13.6-1.5,23.7-14.9,23.7-14.9c9.4,5.1,20,8.1,20,8.1C118.1,181.2,118.4,195.2,118.4,195.2z"/>
	<path class="st28" d="M86.8,181.1c0-1,0.8-1.9,1.9-1.9c1,0,1.9,0.8,1.9,1.9c0,1-0.8,1.9-1.9,1.9C87.6,183,86.8,182.2,86.8,181.1z"
		/>
</g>
</svg>
