<?xml version="1.0"?>
<svg xmlns="http://www.w3.org/2000/svg" xmlns:xlink="http://www.w3.org/1999/xlink" xmlns:svgjs="http://svgjs.com/svgjs" version="1.1" width="512" height="512" x="0" y="0" viewBox="0 0 512 512" style="enable-background:new 0 0 512 512" xml:space="preserve" class=""><g>
<g xmlns="http://www.w3.org/2000/svg">
	<g>
		<path d="M497,80.332H174.601v31.065c0,8.284-6.717,15-15,15c-8.285,0-15-6.716-15-15V80.332H15c-8.285,0-15,6.716-15,15v112.467    c0,8.284,6.715,15,15,15c18.307,0,33.2,14.894,33.2,33.2c0,18.307-14.894,33.2-33.2,33.2c-8.285,0-15,6.716-15,15v112.468    c0,8.284,6.715,15,15,15h129.601V400.6c0-8.284,6.715-15,15-15c8.283,0,15,6.716,15,15v31.068H497c8.284,0,15-6.716,15-15V95.332    C512,87.047,505.284,80.332,497,80.332z M174.601,314.908c0,8.284-6.717,15-15,15c-8.285,0-15-6.716-15-15v-16.066    c0-8.284,6.715-15,15-15c8.283,0,15,6.716,15,15V314.908z M174.601,213.154c0,8.284-6.717,15-15,15c-8.285,0-15-6.716-15-15    v-16.066c0-8.284,6.715-15,15-15c8.283,0,15,6.716,15,15V213.154z M269.497,197.195c2.791-2.8,6.66-4.399,10.61-4.399    c3.941,0,7.81,1.6,10.601,4.399c2.789,2.79,4.399,6.66,4.399,10.601c0,3.949-1.61,7.819-4.399,10.609    c-2.791,2.79-6.66,4.4-10.601,4.4c-3.95,0-7.819-1.61-10.61-4.4c-2.789-2.79-4.4-6.66-4.4-10.609    C265.097,203.855,266.708,199.985,269.497,197.195z M387.107,314.805c-2.8,2.79-6.66,4.39-10.61,4.39    c-3.949,0-7.81-1.6-10.609-4.39c-2.791-2.79-4.391-6.66-4.391-10.61c0-3.94,1.6-7.81,4.391-10.6c2.8-2.79,6.66-4.4,10.609-4.4    c3.95,0,7.82,1.61,10.61,4.4c2.79,2.79,4.39,6.66,4.39,10.6C391.497,308.145,389.897,312.015,387.107,314.805z M387.105,218.406    l-96.396,96.4c-2.929,2.929-6.769,4.393-10.607,4.393c-3.84,0-7.678-1.464-10.607-4.393c-5.857-5.858-5.857-15.355,0-21.213    l96.397-96.399c5.858-5.857,15.355-5.859,21.213,0C392.963,203.05,392.963,212.547,387.105,218.406z" fill="#373737" data-original="#000000" style=""/>
	</g>
</g>
<g xmlns="http://www.w3.org/2000/svg">
</g>
<g xmlns="http://www.w3.org/2000/svg">
</g>
<g xmlns="http://www.w3.org/2000/svg">
</g>
<g xmlns="http://www.w3.org/2000/svg">
</g>
<g xmlns="http://www.w3.org/2000/svg">
</g>
<g xmlns="http://www.w3.org/2000/svg">
</g>
<g xmlns="http://www.w3.org/2000/svg">
</g>
<g xmlns="http://www.w3.org/2000/svg">
</g>
<g xmlns="http://www.w3.org/2000/svg">
</g>
<g xmlns="http://www.w3.org/2000/svg">
</g>
<g xmlns="http://www.w3.org/2000/svg">
</g>
<g xmlns="http://www.w3.org/2000/svg">
</g>
<g xmlns="http://www.w3.org/2000/svg">
</g>
<g xmlns="http://www.w3.org/2000/svg">
</g>
<g xmlns="http://www.w3.org/2000/svg">
</g>
</g></svg>
