<?xml version="1.0" encoding="iso-8859-1"?>
<!-- Generator: Adobe Illustrator 19.0.0, SVG Export Plug-In . SVG Version: 6.00 Build 0)  -->
<svg version="1.1" id="Capa_1" xmlns="http://www.w3.org/2000/svg" xmlns:xlink="http://www.w3.org/1999/xlink" x="0px" y="0px"
	 viewBox="0 0 512.003 512.003" style="enable-background:new 0 0 512.003 512.003;" xml:space="preserve">
<path style="fill:#59A5E0;" d="M2.095,229.395L71.999,25.907c6.912-20.128,28.816-30.704,48.928-23.792l340.32,116.896
	c20.128,6.912,30.912,28.72,24,48.848l-69.904,203.488c-6.912,20.128-28.816,30.704-48.944,23.792L26.079,278.243
	C5.967,271.331-4.817,249.523,2.095,229.395z"/>
<rect x="198.321" y="31.562" transform="matrix(-0.3249 0.9458 -0.9458 -0.3249 535.936 117.5331)" style="fill:#3E4347;" width="55.395" height="436.981"/>
<g>
	
		<rect x="345.714" y="115.269" transform="matrix(-0.3249 0.9457 -0.9457 -0.3249 640.1083 -91.2824)" style="fill:#FFFFFF;" width="13.839" height="135.098"/>
	
		<rect x="356.394" y="84.165" transform="matrix(-0.3249 0.9457 -0.9457 -0.3249 624.8427 -142.5938)" style="fill:#FFFFFF;" width="13.839" height="135.098"/>
</g>
<path style="fill:#E9EFF4;" d="M196.815,87.715l-14.864,43.28c-1.76,5.136-7.264,7.824-12.256,6.112l-57.792-19.856
	c-4.992-1.712-7.68-7.2-5.904-12.352l14.864-43.28c1.76-5.152,7.264-7.824,12.4-6.064l57.504,19.744
	C195.903,77.075,198.591,82.563,196.815,87.715z"/>
<path style="fill:#DEE4E9;" d="M196.815,87.715l-14.864,43.28c-1.76,5.136-7.264,7.824-12.256,6.112l-57.792-19.856
	c-4.544-1.568-7.04-6.144-6.288-10.784c40.336,11.152,78.112,1.12,86.688-23.856c0.624-1.824,1.104-3.68,1.264-5.648
	C196.799,79.411,198.223,83.619,196.815,87.715z"/>
<path style="fill:#BBC7D1;" d="M192.015,101.699l1.824-5.296l-26.368-9.056c0.544-4.896-1.68-9.52-5.856-12.128l3.04-8.88
	l-5.28-1.808l-3.056,8.864c-4.896-0.512-9.504,1.76-12.096,5.968l-26.352-9.056l-1.824,5.296l25.84,8.88l-5.248,15.312l-25.856-8.88
	l-1.808,5.296l26.352,9.056c-0.544,4.896,1.696,9.536,5.888,12.128l-3.04,8.864l5.296,1.824l3.056-8.88
	c4.864,0.512,9.472-1.76,12.048-5.952l26.368,9.056l1.824-5.296l-25.84-8.88l5.264-15.312L192.015,101.699z M154.687,109.043
	c-1.296,3.776-5.424,5.792-9.2,4.512h-0.016c-3.776-1.296-5.776-5.424-4.48-9.2l7.136-20.768c1.296-3.792,5.424-5.824,9.2-4.528
	s5.792,5.424,4.496,9.2L154.687,109.043z"/>
<g style="opacity:0.2;">
	<path style="fill:#FFFFFF;" d="M174.719,75.219c-6.032,17.552-34.416,23.872-63.376,14.096l9.52-27.696
		c1.76-5.152,7.264-7.824,12.4-6.064l42.528,14.608C175.663,71.987,175.295,73.555,174.719,75.219z"/>
</g>
<path style="fill:#65B1EF;" d="M511.999,258.435v215.168c0,21.28-17.28,38.4-38.56,38.4h-359.84c-21.28,0-38.56-17.12-38.56-38.4
	V258.435c0-21.28,17.28-38.4,38.56-38.4h359.84C494.719,220.035,511.999,237.155,511.999,258.435z"/>
<path style="fill:#E24B4B;" d="M459.007,432.851c0,20.192-16.256,36.592-36.464,36.592c-20.32,0-36.592-16.4-36.592-36.592
	c0-20.336,16.272-36.592,36.592-36.592C442.735,396.259,459.007,412.515,459.007,432.851z"/>
<path style="fill:#FFD93B;" d="M414.687,432.851c0,20.192-16.256,36.592-36.448,36.592c-20.336,0-36.592-16.4-36.592-36.592
	c0-20.336,16.256-36.592,36.592-36.592C398.431,396.259,414.687,412.515,414.687,432.851z"/>
<path style="fill:#59A5E0;" d="M511.999,258.403v215.2c0,21.28-17.28,38.4-38.56,38.4h-359.84c-10.56,0-20.16-4.32-27.04-11.04
	c198.08-4.8,379.52-119.36,419.52-263.2C509.759,243.683,511.999,250.723,511.999,258.403z"/>
<g>
	<rect x="127.999" y="403.043" style="fill:#FFFFFF;" width="135.104" height="17.68"/>
	<rect x="127.999" y="444.979" style="fill:#FFFFFF;" width="135.104" height="17.68"/>
</g>
<rect x="75.039" y="283.955" style="fill:#5A5F63;" width="436.96" height="55.392"/>
<path style="fill:#3E4347;" d="M487.647,283.955c-9.84,19.28-21.968,37.872-36.56,55.392h60.912v-55.392H487.647z"/>
<path style="fill:#D03F3F;" d="M459.007,432.851c0,20.192-16.256,36.592-36.464,36.592c-20.32,0-36.592-16.4-36.592-36.592
	c0-20.336,16.272-36.592,36.592-36.592C442.735,396.259,459.007,412.515,459.007,432.851z"/>
<path style="fill:#F4C534;" d="M378.239,469.443c20.192,0,36.448-16.4,36.448-36.592c0-16.512-10.8-30.176-25.664-34.784
	c-14.704,11.232-30.448,21.664-47.04,31.344c-0.112,1.152-0.336,2.256-0.336,3.44C341.647,453.043,357.903,469.443,378.239,469.443z
	"/>
<g>
</g>
<g>
</g>
<g>
</g>
<g>
</g>
<g>
</g>
<g>
</g>
<g>
</g>
<g>
</g>
<g>
</g>
<g>
</g>
<g>
</g>
<g>
</g>
<g>
</g>
<g>
</g>
<g>
</g>
</svg>
