<?xml version="1.0" encoding="iso-8859-1"?>
<!-- Generator: Adobe Illustrator 19.0.0, SVG Export Plug-In . SVG Version: 6.00 Build 0)  -->
<svg version="1.1" id="Capa_1" xmlns="http://www.w3.org/2000/svg" xmlns:xlink="http://www.w3.org/1999/xlink" x="0px" y="0px"
	 viewBox="0 0 512 512" style="enable-background:new 0 0 512 512;" xml:space="preserve">
<g>
	<g>
		<path d="M432,327H80c-44.112,0-80,35.888-80,80s35.888,80,80,80h352c44.112,0,80-35.888,80-80S476.112,327,432,327z M106,432
			c-13.807,0-25-11.193-25-25s11.193-25,25-25s25,11.193,25,25S119.807,432,106,432z M206,432c-13.807,0-25-11.193-25-25
			s11.193-25,25-25s25,11.193,25,25S219.807,432,206,432z M306,432c-13.807,0-25-11.193-25-25s11.193-25,25-25s25,11.193,25,25
			S319.807,432,306,432z M406,432c-13.807,0-25-11.193-25-25s11.193-25,25-25s25,11.193,25,25S419.807,432,406,432z"/>
	</g>
</g>
<g>
	<g>
		<path d="M351,127h-20v-27c0-41.355-33.645-75-75-75c-41.355,0-75,33.645-75,75v27h-20c-8.284,0-15,6.716-15,15v119
			c0,8.284,6.716,15,15,15h190c8.284,0,15-6.716,15-15V142C366,133.716,359.284,127,351,127z M271,206.128V212
			c0,8.284-6.716,15-15,15s-15-6.716-15-15v-5.872c-5.822-2.061-10-7.6-10-14.128c0-8.284,6.716-15,15-15h20c8.284,0,15,6.716,15,15
			C281,198.528,276.822,204.067,271,206.128z M301,127h-90v-27c0-24.813,20.187-45,45-45s45,20.187,45,45V127z"/>
	</g>
</g>
<g>
</g>
<g>
</g>
<g>
</g>
<g>
</g>
<g>
</g>
<g>
</g>
<g>
</g>
<g>
</g>
<g>
</g>
<g>
</g>
<g>
</g>
<g>
</g>
<g>
</g>
<g>
</g>
<g>
</g>
</svg>
