<?xml version="1.0" encoding="utf-8"?>
<!-- Generator: Adobe Illustrator 24.0.1, SVG Export Plug-In . SVG Version: 6.00 Build 0)  -->
<svg version="1.1" id="Capa_1" xmlns="http://www.w3.org/2000/svg" xmlns:xlink="http://www.w3.org/1999/xlink" x="0px" y="0px"
	 viewBox="0 0 512 512" style="enable-background:new 0 0 512 512;" xml:space="preserve">
<style type="text/css">
	.st0{fill:#032B43;}
	.st1{fill:#FFFFFF;}
</style>
<g>
	<path class="st0" d="M203.39,412.32l-32.06-24.05c-3.31-2.48-8.01-1.81-10.5,1.5s-1.81,8.02,1.5,10.5l14.06,10.55h-25.6
		c-26.81,0-48.61-21.81-48.61-48.61v-48.09c0-4.14-3.36-7.5-7.5-7.5s-7.5,3.36-7.5,7.5v48.09c0,35.08,28.54,63.61,63.61,63.61h25.6
		l-14.06,10.55c-3.31,2.48-3.99,7.19-1.5,10.5c1.47,1.96,3.73,3,6.01,3c1.57,0,3.15-0.49,4.49-1.5l32.06-24.05c1.89-1.42,3-3.64,3-6
		S205.28,413.74,203.39,412.32z"/>
	<path class="st0" d="M306.61,103.68l32.06,24.05c1.35,1.01,2.93,1.5,4.49,1.5c2.28,0,4.53-1.04,6.01-3
		c2.48-3.31,1.81-8.01-1.5-10.5l-14.06-10.55h25.6c26.81,0,48.61,21.81,48.61,48.61v48.09c0,4.14,3.36,7.5,7.5,7.5s7.5-3.36,7.5-7.5
		v-48.09c0-35.08-28.54-63.61-63.61-63.61h-25.6l14.06-10.55c3.31-2.49,3.98-7.19,1.5-10.5c-2.49-3.31-7.19-3.99-10.5-1.5
		l-32.06,24.05c-1.89,1.42-3,3.64-3,6S304.72,102.26,306.61,103.68L306.61,103.68z"/>
	<path class="st0" d="M512,256v224.45c0,17.4-14.15,31.55-31.55,31.55H256c-17.4,0-31.55-14.15-31.55-31.55v-192.9H31.55
		C14.15,287.55,0,273.4,0,256V31.55C0,20.21,6,10.26,15,4.7C19.81,1.72,25.49,0,31.55,0H256c6.06,0,11.74,1.72,16.55,4.7
		c9,5.56,15,15.51,15,26.85v192.9h192.9C497.85,224.45,512,238.6,512,256z"/>
	<path class="st1" d="M216.47,71.19h-64.64v-8.53c0-4.14-3.36-7.5-7.5-7.5s-7.5,3.36-7.5,7.5v8.53H72.18c-4.14,0-7.5,3.36-7.5,7.5
		s3.36,7.5,7.5,7.5h110.45c-4.32,13.87-15.14,41.85-38.34,69.78c-14.17-17.04-23.76-34.17-30.12-48.32
		c-1.7-3.78-6.13-5.47-9.91-3.77c-3.78,1.7-5.47,6.14-3.77,9.91c7.02,15.64,17.73,34.66,33.7,53.48
		c-11.38,11.81-25.17,23.26-41.81,33.25c-3.55,2.13-4.7,6.74-2.57,10.29c1.41,2.34,3.89,3.64,6.44,3.64c1.31,0,2.64-0.35,3.85-1.07
		c17.65-10.59,32.22-22.7,44.2-35.01c12.11,12.43,26.7,24.46,44.28,35.01c1.21,0.73,2.54,1.07,3.85,1.07c2.55,0,5.03-1.3,6.44-3.64
		c2.13-3.55,0.98-8.16-2.57-10.29c-16.68-10.01-30.47-21.45-41.88-33.26c11.79-13.88,20.44-27.49,26.59-38.91
		c9.96-18.49,15.04-34.03,17.29-42.15h18.19c4.14,0,7.5-3.36,7.5-7.5S220.61,71.19,216.47,71.19L216.47,71.19z"/>
	<path class="st1" d="M378.99,286.28c-1.67-4.05-5.58-6.67-9.96-6.67c0,0-0.01,0-0.01,0c-4.39,0-8.3,2.63-9.96,6.69
		c-0.02,0.06-0.05,0.11-0.07,0.17l-54.18,142.26c-1.47,3.87,0.47,8.2,4.34,9.68c0.88,0.33,1.78,0.49,2.67,0.49
		c3.02,0,5.87-1.84,7.01-4.83l11.65-30.6h76.7l11.54,30.58c1.46,3.88,5.79,5.83,9.67,4.37c3.88-1.46,5.83-5.79,4.37-9.67
		l-53.69-142.26C379.04,286.42,379.01,286.35,378.99,286.28L378.99,286.28z M336.19,388.47l32.81-86.16l32.51,86.16H336.19z"/>
</g>
</svg>
